<?xml version="1.0" standalone="no"?>
<!DOCTYPE svg PUBLIC "-//W3C//DTD SVG 1.1//EN" "http://www.w3.org/Graphics/SVG/1.1/DTD/svg11.dtd" >
<svg xmlns="http://www.w3.org/2000/svg">
<metadata></metadata>
<defs>
<font id="pf_square_sans_prothin" horiz-adv-x="1085" >
<font-face units-per-em="2048" ascent="1536" descent="-512" />
<missing-glyph horiz-adv-x="491" />
<glyph horiz-adv-x="0" />
<glyph horiz-adv-x="682" />
<glyph unicode=" "  horiz-adv-x="491" />
<glyph unicode="&#x09;" horiz-adv-x="491" />
<glyph unicode="&#xa0;" horiz-adv-x="491" />
<glyph unicode="!" horiz-adv-x="405" d="M137 47q0 29 12.5 46.5t49.5 17.5q39 0 50 -17.5t11 -46.5t-11 -47t-50 -18q-41 0 -51.5 19t-10.5 46zM162 1341q0 16 14 17h66q14 0 10 -17l-29 -1028q0 -12 -8 -12h-22q-10 0 -11 12z" />
<glyph unicode="&#x22;" horiz-adv-x="458" d="M111 1343q0 14 14 15h45q12 0 12 -15l-20 -321q0 -12 -10 -12h-17q-4 0 -8 12zM270 1343q0 14 17 15h43q12 0 12 -15l-20 -321q0 -12 -11 -12h-14q-8 0 -8 12z" />
<glyph unicode="#" d="M2 522l4 27q4 10 14 10h273l74 313h-267q-12 0 -8 15l4 26q2 12 15 13h268l98 420q2 12 10 12h31q16 0 14 -12l-98 -420h305l99 420q2 12 10 12h31q16 0 14 -12l-98 -420h278q10 0 8 -13l-4 -26q-4 -14 -14 -15h-281l-71 -313h272q10 0 10 -10l-6 -27q-4 -16 -14 -16 h-275l-114 -494q-4 -12 -17 -12h-30q-12 0 -11 12l115 494h-303l-115 -494q-4 -12 -16 -12h-31q-12 0 -10 12l115 494h-271q-12 0 -8 16zM350 559h303l74 313h-305z" />
<glyph unicode="$" d="M127 72l4 22q2 10 19 10q45 -6 97 -11t102 -9t94 -6t77 -2q166 0 263.5 69.5t97.5 196.5q0 84 -22.5 139.5t-64.5 92t-103.5 57t-141.5 33.5q-96 14 -173 35.5t-132.5 57.5t-85 93t-29.5 147q0 164 102.5 254t276.5 99v170q0 10 12 10h41q8 0 8 -10v-168q84 -2 168 -9.5 t156 -31.5q12 -6 10 -19l-2 -22q-2 -12 -16 -10q-20 2 -60.5 6t-88.5 7t-98 6t-89 3q-174 0 -257 -74.5t-83 -203.5q0 -74 26.5 -121t72.5 -76t107.5 -44t129.5 -28q84 -14 159.5 -34.5t132 -60.5t89 -104.5t32.5 -166.5q0 -96 -30.5 -163t-82.5 -110t-123 -64.5t-153 -27.5 v-186q0 -12 -10 -13h-39q-6 0 -9 1t-3 12v186q-33 0 -85 4t-106.5 10.5t-103.5 15.5t-76 19q-14 4 -10 19z" />
<glyph unicode="%" horiz-adv-x="1495" d="M74 979q0 49 6 115.5t33.5 128t85 103.5t157.5 42q98 0 156.5 -34t88.5 -88t38 -123.5t8 -143.5q0 -66 -7 -138.5t-36 -134t-87.5 -101.5t-160.5 -40t-158.5 38t-84 97.5t-33.5 133t-6 145.5zM137 965q0 -68 6.5 -130.5t29 -109.5t66.5 -75.5t117 -28.5q74 0 118 28.5 t68.5 76.5t32 110.5t7.5 128.5q0 74 -7.5 138t-30 111.5t-67.5 74t-121 26.5q-74 0 -116.5 -31t-66 -81t-30 -112.5t-6.5 -125.5zM444 -35l557 1458q2 10 13 11h43q10 0 11 -2t-3 -9l-557 -1458q-4 -12 -14 -12h-41q-12 0 -9 12zM848 403q0 49 6 116t33.5 128.5t85 103.5 t157.5 42q98 0 157 -34t88.5 -88.5t37.5 -124t8 -143.5q0 -66 -7 -138t-35.5 -133.5t-87.5 -101.5t-161 -40t-158.5 38t-84 97t-33.5 133t-6 145zM911 389q0 -68 6.5 -130t29 -109.5t66.5 -76t117 -28.5q74 0 118 28.5t68.5 77t32 111t7.5 127.5q0 74 -7.5 138.5t-30 111.5 t-67.5 73.5t-121 26.5q-74 0 -116.5 -30.5t-66 -80.5t-30 -112.5t-6.5 -126.5z" />
<glyph unicode="&#x26;" horiz-adv-x="1347" d="M70 362q0 137 88 242t264 205q-59 86 -90 160.5t-31 134.5q0 117 68.5 195.5t191.5 78.5q63 0 111.5 -18.5t80 -51t48 -76.5t16.5 -95q0 -106 -72.5 -189.5t-218.5 -165.5q86 -145 198 -284.5t228 -255.5q106 104 181 238t94 306q4 14 14 15l31 -2q10 0 10 -17 q-6 -86 -33.5 -171t-67.5 -161.5t-88.5 -143t-97.5 -111.5q78 -72 157 -134.5t146 -99.5q14 -10 9 -20l-19 -29q-4 -10 -12 -9t-12 5q-29 14 -69 39.5t-85 57.5t-89 70t-83 75q-111 -84 -228.5 -126t-228.5 -42q-88 0 -162.5 23.5t-130 71.5t-87 118.5t-31.5 166.5zM137 367 q0 -84 26.5 -144.5t73 -100.5t106.5 -60.5t128 -20.5q98 0 205.5 38t218.5 118q-59 59 -119.5 128.5t-117 143.5t-107.5 146.5t-94 140.5q-70 -37 -128.5 -78t-101.5 -88t-66.5 -102.5t-23.5 -120.5zM379 1114q0 -61 28.5 -130t81.5 -144q53 29 100.5 58.5t82.5 64 t55.5 75.5t20.5 92q0 84 -53.5 135.5t-139.5 51.5q-51 0 -85 -21.5t-54.5 -52.5t-28.5 -66.5t-8 -62.5z" />
<glyph unicode="'" horiz-adv-x="352" d="M137 1343q0 14 15 15h45q12 0 12 -15l-21 -321q0 -12 -10 -12h-16q-4 0 -8 12z" />
<glyph unicode="(" horiz-adv-x="538" d="M139 657q0 229 72 418t199 361q6 8 16 6l12 -8q8 -5 2 -19q-27 -39 -64.5 -106.5t-73.5 -162.5t-60.5 -217t-24.5 -272q0 -178 23.5 -316t57.5 -242.5t74 -177.5t74 -120q8 -10 0 -16l-14 -8q-10 -6 -16 2q-43 61 -92.5 135t-90 176.5t-67.5 240.5t-27 326z" />
<glyph unicode=")" horiz-adv-x="538" d="M125 -199q35 47 75 120t74.5 177.5t57 242.5t22.5 316q0 150 -24.5 272t-59 217t-72.5 162.5t-65 106.5q-10 14 0 19l14 8q10 4 17 -6q125 -172 196.5 -361t71.5 -418q0 -188 -26.5 -326t-67.5 -240.5t-89 -176.5t-93 -135q-6 -8 -17 -2l-14 8q-8 6 0 16z" />
<glyph unicode="*" horiz-adv-x="595" d="M93 1218.5q-1 2.5 3 10.5l8 14q6 8 17 4l162 -82l10 176q2 6 3 9.5t11 3.5h19q10 0 10 -13l10 -176l156 74q6 4 9 4t9 -8l8 -12q6 -8 -6 -17l-147 -96l149 -100q6 -4 7 -6.5t-3 -12.5l-10 -16q-4 -8 -18 -2l-154 82l-8 -176q0 -12 -10 -13h-23q-8 0 -10 13l-12 178 l-164 -80q-8 -4 -15 2l-10 18q-4 6 8 17l148 98l-150 100q-6 4 -7 6.5z" />
<glyph unicode="+" d="M168 649v43q0 12 12 13h330v337q0 12 12 13h45q8 0 8 -13v-337h330q12 0 13 -13v-45q0 -8 -13 -8h-330v-346q0 -12 -10 -12h-43q-12 0 -12 12v346h-330q-12 0 -12 10z" />
<glyph unicode="," horiz-adv-x="346" d="M102 -233q-8 8 2 14q55 55 56 135q0 33 -11.5 65.5t-29.5 59.5q-12 12 2 20l72 48q10 8 22 -3q20 -23 28.5 -52t8.5 -46q0 -78 -35 -147.5t-84 -106.5q-8 -8 -14 -2z" />
<glyph unicode="-" horiz-adv-x="704" d="M80 633v55q0 12 10 12h543q10 0 10 -12v-57q0 -8 -10 -8h-543q-10 0 -10 10z" />
<glyph unicode="." horiz-adv-x="280" d="M76 47q0 29 12 46.5t49 17.5q39 0 50.5 -17.5t11.5 -46.5t-11.5 -47t-50.5 -18q-41 0 -51 19t-10 46z" />
<glyph unicode="/" horiz-adv-x="471" d="M6 -127l379 1532q2 12 14 12h50q10 0 11 -2t-1 -10l-377 -1532q-2 -10 -12 -10h-52q-14 0 -12 10z" />
<glyph unicode="0" d="M92 698q0 57 4 131t18.5 149t44 146.5t80 127t125 89t181.5 33.5q160 0 253 -57t141 -152.5t61.5 -216.5t13.5 -250q0 -74 -4 -155.5t-19.5 -161.5t-46.5 -152.5t-83 -127t-128.5 -87t-187.5 -32.5q-162 0 -253 65.5t-135 168.5t-54.5 231t-10.5 251zM168 678 q0 -125 11 -238.5t49 -200.5t113 -139.5t204 -52.5t206.5 53.5t118.5 141.5t54.5 201.5t13.5 234.5q0 135 -11.5 250.5t-51 200.5t-118.5 134.5t-212 49.5q-127 0 -202 -55.5t-114 -145.5t-50 -203.5t-11 -230.5z" />
<glyph unicode="1" d="M211 10v47q0 10 12 11h312v1187h-263q-12 0 -12 11v18q0 12 10 14l234 56q10 4 21.5 4h19.5h51q12 0 12 -15v-1275h303q12 0 13 -11v-47q0 -10 -13 -10h-688q-12 0 -12 10z" />
<glyph unicode="2" d="M98 18v31q0 12 4 23.5t25 31.5q43 43 106.5 109t136 142.5t149.5 158.5t151 158q33 33 63.5 68.5t55 76.5t39 88t14.5 103q0 145 -80 217.5t-273 72.5q-27 0 -67.5 -2t-87.5 -6t-95.5 -8t-91.5 -10q-16 -2 -18 10l-4 23q-4 14 10 18q35 14 81 23.5t94 15.5t95.5 9t81.5 3 q119 0 203 -23.5t135.5 -67.5t75 -106.5t23.5 -140.5q0 -70 -12.5 -123t-36 -99t-58.5 -88t-78 -89q-63 -68 -135 -143.5t-144.5 -150.5t-141 -146.5t-128.5 -128.5h746q14 0 14 -11v-47q0 -10 -14 -10h-819q-18 0 -19 18z" />
<glyph unicode="3" d="M100 51l4 23q2 12 19 10q43 -6 91 -11t96 -9.5t89 -6.5t68 -2q76 0 149.5 13.5t132 55.5t94.5 121t36 212q0 61 -19.5 104t-53.5 70.5t-80 44t-101 26.5l-244 43q-16 0 -16 17v47q0 18 18 37l455 442h-711q-14 0 -14 10v50q0 10 14 10h778q16 0 17 -17v-43 q0 -20 -3.5 -29t-13.5 -18l-454 -444l221 -37q59 -10 111.5 -31.5t91 -57.5t61 -89t22.5 -123q0 -152 -36.5 -247t-101 -148.5t-152.5 -72.5t-193 -19q-35 0 -84 3t-99 9t-98.5 15t-82.5 24q-14 4 -11 18z" />
<glyph unicode="4" d="M35 401v43q0 25 18 48l701 849q8 10 18 13.5t23 3.5h41q4 -2 7 -3t3 -9v-887h186q14 0 15 -10v-48q0 -10 -15 -10h-186v-379q0 -12 -10 -12h-54q-10 0 -10 12l-2 379h-721q-14 0 -14 10zM115 459h655v790z" />
<glyph unicode="5" d="M96 51l4 23q2 12 19 10q43 -6 91 -11t96 -9.5t89 -6.5t68 -2q76 0 149.5 13.5t132 55.5t94 121t35.5 212q0 61 -19 104t-53 70.5t-80 44t-101 26.5l-463 76q-27 6 -23 35l80 524q2 18 25 19h649q16 0 16 -10v-48q0 -10 -16 -10h-608l-70 -446l457 -72q59 -10 111 -31.5 t91 -57.5t61.5 -89t22.5 -123q0 -152 -36.5 -247t-101 -148.5t-153 -72.5t-192.5 -19q-35 0 -84 3t-99 9t-98.5 15t-83.5 24q-14 4 -10 18z" />
<glyph unicode="6" d="M90 625q0 141 15.5 275t66.5 238.5t149.5 169t266.5 64.5q31 0 74 -2t88 -7t89 -13.5t76 -20.5q14 -4 11 -18l-2 -23q-2 -6 -5.5 -9t-13.5 -1q-61 4 -150 12t-171 8q-129 0 -208 -46t-124 -123.5t-61.5 -180t-18.5 -215.5q98 10 168 17.5t124 12.5t99 7t96 2 q82 0 146.5 -22.5t110 -72.5t69 -128t23.5 -189q0 -102 -34 -173.5t-94.5 -117.5t-146.5 -66.5t-190 -20.5q-170 0 -262.5 44t-134.5 127t-49 202.5t-7 269.5zM170 596q0 -123 4 -227.5t35 -171.5q37 -78 119 -116t223 -38q57 0 123.5 11.5t123 45t94.5 95t38 163.5 q0 78 -13.5 141.5t-47 108.5t-91 69.5t-145.5 24.5q-61 0 -175 -8t-288 -28v-70z" />
<glyph unicode="7" d="M78 1303v40q0 14 14 15h871q8 0 13 -6t5 -11v-38q0 -12 -5 -21.5t-9 -19.5l-625 -1272q-6 -12 -18 -6l-45 20q-14 4 -5 19l623 1267h-807q-12 0 -12 13z" />
<glyph unicode="8" d="M70 340q0 143 74.5 238.5t232.5 142.5v4q-123 33 -192.5 109.5t-69.5 175.5q0 180 106.5 273t317.5 93q201 0 309 -91t108 -265q0 -47 -15 -93t-48 -86t-84 -71t-123 -49v-4q154 -37 237 -129t83 -244q0 -78 -31 -144.5t-91.5 -114.5t-148.5 -75.5t-203 -27.5 q-463 0 -462 358zM150 356q0 -94 33.5 -154.5t89 -94t124 -47t135.5 -13.5q63 0 133 14.5t127.5 49t95.5 90t38 139.5q0 94 -35 153.5t-91.5 96.5t-128 59.5t-145.5 44.5q-74 -16 -142.5 -37.5t-120.5 -57.5t-82.5 -94.5t-30.5 -148.5zM197 1024q0 -72 31.5 -119t80.5 -77.5 t109.5 -49t120.5 -33.5q84 16 147.5 38t105.5 54.5t63.5 78t21.5 108.5q0 80 -27 134t-73 89t-107.5 50.5t-130.5 15.5q-184 0 -263 -73t-79 -216z" />
<glyph unicode="9" d="M86 991q0 102 34 175t95 119t147.5 66.5t190.5 20.5q166 0 258 -44t135 -128t51.5 -203.5t8.5 -269.5q0 -141 -15.5 -275.5t-68 -238.5t-151.5 -167.5t-265 -63.5q-31 0 -74 2t-89 7t-89 12t-76 20q-12 6 -12 20l4 23q2 6 4 9t12 1q61 -6 151.5 -14.5t170.5 -8.5 q129 0 208 46t124 124t61.5 180.5t20.5 217.5q-98 -10 -168 -18.5t-124.5 -12.5t-99.5 -6t-96 -2q-164 0 -256 95t-92 314zM164 995q0 -78 13 -141t47 -108.5t91.5 -70t145.5 -24.5q61 0 174 8.5t289 28.5v68q0 123 -4.5 228.5t-36.5 172.5q-37 78 -118 115t-222 37 q-57 0 -124 -11.5t-123 -44t-94 -95.5t-38 -163z" />
<glyph unicode=":" horiz-adv-x="346" d="M115 53q0 27 11 44.5t50 17.5t50.5 -16.5t11.5 -45.5t-11.5 -48t-50.5 -19q-41 0 -51 19.5t-10 47.5zM115 840q0 27 11 44t50 17t50.5 -16t11.5 -45t-11.5 -48.5t-50.5 -19.5q-41 0 -51 19.5t-10 48.5z" />
<glyph unicode=";" horiz-adv-x="346" d="M92 -233q-8 8 2 14q55 55 56 135q0 33 -11.5 65.5t-29.5 59.5q-12 12 2 20l71 48q10 8 23 -3q20 -23 28.5 -52t8.5 -46q0 -78 -35 -148.5t-84 -105.5q-8 -8 -14 -2zM115 840q0 27 11 44t50 17t50.5 -16t11.5 -45t-11.5 -48.5t-50.5 -19.5q-41 0 -51 19.5t-10 48.5z" />
<glyph unicode="&#x3c;" d="M166 649v37q0 14 20 27l703 393q18 10 22 5t4 -13v-31q0 -16 -4 -21.5t-14 -9.5l-659 -364v-2l657 -332q14 -8 18.5 -14.5t4.5 -22.5v-29q0 -20 -23 -10l-707 363q-23 12 -22 24z" />
<glyph unicode="=" d="M168 483v43q0 12 12 13h725q12 0 13 -13v-45q0 -8 -13 -8h-725q-12 0 -12 10zM168 827v43q0 12 12 13h725q12 0 13 -13v-45q0 -8 -13 -8h-725q-12 0 -12 10z" />
<glyph unicode="&#x3e;" d="M166 272v29q0 16 4 22.5t18 14.5l658 332v2l-660 364q-10 4 -14 9.5t-4 21.5v31q0 8 4 13t23 -5l702 -393q20 -12 21 -27v-37q0 -12 -23 -24l-707 -363q-23 -10 -22 10z" />
<glyph unicode="?" horiz-adv-x="692" d="M41 1325q0 14 10 16q25 8 57.5 14.5t66.5 9.5t66.5 5t57.5 2q55 0 116.5 -12t114 -43t87 -86t34.5 -141q0 -47 -14 -84t-36.5 -67t-50.5 -54.5t-56 -44.5q-47 -35 -90.5 -74t-75 -85t-52 -101.5t-20.5 -122.5v-142q0 -14 -12 -14h-37q-6 0 -8 1t-4 11v164q0 61 19 115.5 t51 103.5t75 92t92 80q25 20 51.5 41t48 45.5t36 54t14.5 70.5q0 66 -23.5 109t-63.5 68.5t-93.5 36t-112.5 10.5q-12 0 -41 -1.5t-62.5 -2.5t-67.5 -3t-59 -4q-16 -2 -16 11zM166 47q0 29 12 46.5t49 17.5q39 0 50.5 -17.5t11.5 -46.5t-11.5 -47t-50.5 -18q-41 0 -51 19 t-10 46z" />
<glyph unicode="@" horiz-adv-x="1632" d="M98 682q0 156 60.5 288t165 227t244 149.5t296.5 54.5q166 0 295 -47t218 -135.5t136.5 -215t47.5 -284.5q0 -102 -28 -180t-74 -130.5t-104.5 -79t-119.5 -26.5q-104 0 -152.5 34t-70.5 109q-35 -20 -70 -39.5t-73 -34t-81 -22.5t-94 -8q-180 0 -180 195q0 127 60.5 183 t189.5 56h242v70q0 45 -6.5 77.5t-27 55t-58 34t-99.5 11.5q-53 0 -107.5 -6t-109.5 -10q-10 -2 -12 0t-4 12l-2 20q-2 12 10 17q51 18 116.5 23t104.5 5q76 0 127 -10t82 -37.5t44 -73.5t13 -120v-344q0 -23 5 -48.5t20.5 -47t46.5 -36t82 -14.5q59 0 108.5 28t85 77 t55 116.5t19.5 145.5q0 147 -45 263t-128 196t-200.5 121.5t-261.5 41.5q-147 0 -275 -50t-223.5 -138t-150.5 -209t-55 -262q0 -152 51 -273.5t142 -208.5t218 -134.5t279 -47.5q8 0 32.5 1.5t58.5 3.5t71 7t67 11q8 2 13 -6l8 -23q0 -6 -4 -8q-45 -23 -118 -32t-142 -9 q-160 0 -295 51.5t-233.5 145.5t-154 226t-55.5 294zM584 543q0 -84 28.5 -113t110.5 -29q37 0 80 12.5t83 28t71.5 31.5t48.5 25v221h-240q-41 0 -74 -7t-57.5 -26.5t-37.5 -54.5t-13 -88z" />
<glyph unicode="A" horiz-adv-x="1069" d="M39 12l444 1331q4 10 7.5 11.5t9.5 1.5h63q10 0 17 -15l446 -1329q3 -6 3 -9t-11 -3h-55q-4 0 -8.5 1t-8.5 11l-119 371h-591l-119 -371q-2 -10 -5 -11t-10 -1h-51q-13 0 -13 8q0 2 1 4zM258 451h547l-273 819h-6z" />
<glyph unicode="B" horiz-adv-x="1075" d="M131 16v1325q0 14 14 15l439 2q174 0 269 -91t95 -237q0 -35 -6 -79t-26.5 -87t-58.5 -83t-99 -66v-2q68 -23 112.5 -64t71.5 -92t37 -105.5t10 -99.5q0 -82 -25.5 -146.5t-70.5 -110.5t-107.5 -70.5t-136.5 -24.5h-493q-16 0 -20.5 5t-4.5 11zM209 68h391 q88 0 147.5 23.5t94.5 64.5t49 95t14 116q0 57 -19.5 112.5t-58.5 98.5t-97 69.5t-134 26.5h-387v-606zM209 739h346q154 0 231.5 77t77.5 200q0 121 -71.5 196.5t-227.5 75.5h-356v-549z" />
<glyph unicode="C" horiz-adv-x="1046" d="M145 664q0 143 19.5 272t75 225t152.5 153.5t253 57.5q33 0 80 -2t95 -6t94.5 -12.5t78.5 -20.5q14 -4 11 -18l-3 -23q-2 -6 -5 -9t-13 -1q-31 2 -68.5 5t-80.5 6t-87.5 5t-84.5 2q-147 0 -234.5 -57t-132.5 -147t-58.5 -204t-13.5 -226q0 -119 16.5 -228.5t64.5 -193.5 t133 -134.5t220 -50.5q35 0 79 1t88 4.5t86 5.5t73 6q16 0 18 -13l5 -22q0 -12 -13 -19q-33 -12 -83 -19t-101 -11t-96 -6t-68 -2q-154 0 -251 53t-152.5 146t-76 217.5t-20.5 265.5z" />
<glyph unicode="D" horiz-adv-x="1210" d="M154 14v1327q0 14 20 15h379q156 0 258 -52.5t161.5 -142.5t84 -213t24.5 -266q0 -145 -22.5 -270t-81.5 -216.5t-161.5 -143.5t-260.5 -52h-381q-14 0 -17 4t-3 10zM229 66h328q139 0 226 50t135.5 133t65.5 191.5t17 225.5q0 111 -16 222t-62 200.5t-131 144.5t-221 55 h-342v-1222z" />
<glyph unicode="E" horiz-adv-x="964" d="M141 10v1333q0 14 11 15h706q10 0 10 -12v-46q0 -12 -10 -12h-641v-549h578q10 0 10 -10v-41q0 -14 -10 -14h-578v-606h653q12 0 13 -11v-47q0 -10 -13 -10h-718q-10 0 -11 10z" />
<glyph unicode="F" horiz-adv-x="917" d="M147 14v1329q0 14 11 15h696q10 0 10 -12v-46q0 -12 -10 -12h-631v-549h559q10 0 11 -10v-41q0 -14 -11 -14h-559v-660q0 -14 -10 -14h-53q-12 0 -13 14z" />
<glyph unicode="G" horiz-adv-x="1183" d="M133 664q0 143 20.5 272t76 225t152.5 153.5t253 57.5q33 0 80 -2t95 -6t94 -12.5t79 -20.5q14 -4 10 -18l-2 -23q-2 -6 -5 -9t-13 -1q-31 2 -70 5t-83 6t-89 5t-86 2q-150 0 -235.5 -57t-129.5 -147t-55.5 -204t-11.5 -226q0 -119 16.5 -229.5t65.5 -194.5t141 -135.5 t246 -51.5q31 0 67.5 3t75.5 9.5t75 14.5t65 18v514h-213q-16 0 -17 15v49q0 10 17 10h278q12 0 12 -14v-588q0 -20 -8 -34.5t-30 -20.5q-160 -45 -326 -45q-293 0 -419 167.5t-126 512.5z" />
<glyph unicode="H" horiz-adv-x="1167" d="M147 12v1334q0 12 11 12h53q10 0 10 -12v-592h727v592q0 12 15 12h49q10 0 10 -12v-1334q0 -12 -10 -12h-49q-14 0 -15 12v676h-727v-676q0 -12 -10 -12h-53q-10 0 -11 12z" />
<glyph unicode="I" horiz-adv-x="458" d="M190 12v1334q0 12 11 12h53q10 0 10 -12v-1334q0 -12 -10 -12h-53q-10 0 -11 12z" />
<glyph unicode="J" horiz-adv-x="808" d="M20 37l7 22q2 14 18 13q82 -10 139.5 -12.5t81.5 -2.5q88 0 144.5 22.5t87 63.5t41 98.5t10.5 127.5v977q0 12 10 12h55q10 0 11 -12v-1012q0 -78 -16.5 -143.5t-57.5 -112.5t-108.5 -72.5t-172.5 -25.5q-20 0 -50 2t-61.5 6t-65.5 12t-62 18q-12 8 -11 19z" />
<glyph unicode="K" horiz-adv-x="1073" d="M141 12v1334q0 12 11 12h53q10 0 10 -12v-861l694 861q6 6 10.5 9t16.5 3h55q10 0 11.5 -5t-3.5 -10l-446 -548l465 -779q3 -5 3 -9q0 -7 -13 -7h-52q-18 0 -24 12l-428 721l-289 -358v-363q0 -12 -10 -12h-53q-10 0 -11 12z" />
<glyph unicode="L" horiz-adv-x="937" d="M152 12v1331q0 14 12 15h49q10 0 10 -15l2 -1273h676q12 0 12 -13v-47q0 -10 -12 -10h-739q-10 0 -10 12z" />
<glyph unicode="M" horiz-adv-x="1460" d="M150 14v1329q0 14 12 15h57q14 0 19 -12l491 -1024h2l490 1019q4 10 6 13.5t18 3.5h49q16 0 17 -17v-1327q0 -14 -11 -14h-49q-14 0 -14 14v1188h-4l-463 -956q-8 -14 -16 -15h-45q-16 0 -21 13l-461 958h-4v-1188q0 -14 -10 -14h-49q-14 0 -14 14z" />
<glyph unicode="N" horiz-adv-x="1234" d="M143 14l2 1329q0 14 13 15h55q10 0 12 -3l6 -9l785 -1215h4v1212q0 14 10 15h47q14 0 15 -15v-1329q0 -14 -13 -14h-55q-10 0 -12 2t-6 10l-785 1215h-4v-1213q0 -14 -10 -14h-49q-14 0 -15 14z" />
<glyph unicode="O" horiz-adv-x="1261" d="M129 698q0 68 6 145t24.5 151.5t52.5 143t89 121t134 84t188 31.5q164 0 263 -57t153.5 -151.5t71.5 -216.5t17 -251t-15 -257t-67.5 -230t-152.5 -165.5t-270 -63.5t-267.5 63.5t-148.5 165.5t-64.5 230t-13.5 257zM205 678q0 -129 17.5 -244t63.5 -201t127 -135 t210 -49q125 0 207.5 46t133 130t72 199t21.5 254q0 141 -19.5 257t-68.5 199t-133 128t-213 45q-123 0 -204 -48.5t-129 -132.5t-66.5 -198.5t-18.5 -249.5z" />
<glyph unicode="P" horiz-adv-x="987" d="M131 14v1332q0 12 14 12h392q84 0 154.5 -23.5t122.5 -70.5t82 -117t30 -164q0 -72 -21.5 -142.5t-67.5 -127t-119 -91t-175 -34.5h-336v-574q0 -14 -12 -14h-50q-14 0 -14 14zM207 653h334q27 0 79 9.5t102 43t88 98t38 175.5q0 80 -25.5 138.5t-69.5 96t-105.5 56 t-135.5 18.5h-305v-635z" />
<glyph unicode="Q" horiz-adv-x="1259" d="M129 698q0 68 6 145t24.5 151.5t52.5 143t89 121t134 84t188 31.5q164 0 263 -57t153.5 -151.5t71.5 -216.5t17 -251q0 -106 -9 -212.5t-42 -199.5t-93 -165t-161 -109l324 -84q10 -2 12 -7q1 -3 1 -5t-1 -4l-22 -68q-4 -7 -13 -7q-4 0 -8 1l-422 148q-16 -2 -34.5 -3 t-36.5 -1q-170 0 -267.5 63.5t-148.5 165.5t-64.5 230t-13.5 257zM205 678q0 -129 17.5 -244t63.5 -201t127 -135t210 -49q125 0 207.5 46t133 130t72 199t21.5 254q0 141 -19.5 257t-68.5 199t-133 128t-213 45q-123 0 -204 -48.5t-129 -132.5t-66.5 -198.5t-18.5 -249.5z " />
<glyph unicode="R" horiz-adv-x="1017" d="M135 14v1332q0 12 15 12h391q82 0 152.5 -20.5t122.5 -64.5t83 -115t31 -169q0 -61 -15.5 -120.5t-48 -108.5t-84 -86t-123.5 -53l285 -605q2 -5 2 -9q0 -7 -8 -7h-57q-10 0 -15.5 2t-11.5 14l-268 592h-375v-594q0 -14 -12 -14h-49q-14 0 -15 14zM211 674h334q29 0 80 7 t102 38t88 93t37 173q0 86 -25.5 143.5t-69.5 93t-105.5 51t-135.5 15.5h-305v-614z" />
<glyph unicode="S" horiz-adv-x="1024" d="M98 53l4 23q4 12 19 10q47 -6 99 -11t102.5 -9.5t94.5 -6.5t77 -2q166 0 264 72t98 203q0 86 -22.5 143t-64.5 94t-104.5 58.5t-142.5 34.5q-96 16 -174 37.5t-133 59.5t-85 96t-30 151q0 178 112 271t304 93q90 0 182.5 -7t169.5 -36q14 -4 11 -18l-2 -23q-2 -6 -5.5 -9 t-13.5 -1l-60 6t-88 8t-98.5 6t-89.5 2q-174 0 -258 -76.5t-84 -209.5q0 -76 28 -124t74 -78t107.5 -45t128.5 -28q84 -16 160 -36.5t132 -61.5t90 -107.5t34 -173.5q0 -104 -35 -176.5t-95.5 -117t-141 -63.5t-173.5 -19q-31 0 -84 4t-110 11t-108.5 16.5t-77.5 19.5 q-12 5 -12 15q0 3 1 5z" />
<glyph unicode="T" horiz-adv-x="931" d="M35 1300v46q0 12 12 12h844q10 0 10 -12v-46q0 -10 -10 -10h-385l-2 -1278q0 -12 -10 -12h-50q-14 0 -14 12v1278h-383q-12 0 -12 10z" />
<glyph unicode="U" horiz-adv-x="1210" d="M139 475v866q0 16 15 17h51q10 0 10 -17v-872q0 -195 92 -307.5t295 -112.5q193 0 293 104.5t100 315.5v872q0 16 15 17h49q10 0 10 -17v-866q0 -68 -6 -126t-29 -113q-53 -135 -165.5 -194.5t-266.5 -59.5q-160 0 -270.5 59t-157.5 192q-20 53 -27.5 114t-7.5 128z" />
<glyph unicode="V" horiz-adv-x="1089" d="M51 1346q-1 2 -1 4q0 6 13 6h50q12 0 14 -10l410 -1252h6l413 1252q4 10 17 10h53q11 0 11 -2t-3 -8l-444 -1332q-6 -14 -17 -14h-63q-6 0 -9 1t-7 11z" />
<glyph unicode="W" horiz-adv-x="1615" d="M53 1346q-2 10 13 10h49q12 0 14 -10l348 -1252h6l287 1016l-68 236q-2 10 13 10h49q12 0 14 -10l348 -1252h7l352 1252q4 10 16 10h53q12 0 12 -2t-3 -8l-383 -1332q-2 -14 -17 -14h-63q-6 0 -9.5 1t-7.5 11l-276 963l-277 -961q-2 -14 -16 -14h-63q-6 0 -9.5 1t-7.5 11 z" />
<glyph unicode="X" horiz-adv-x="1015" d="M57 12l408 690l-379 644q-4 6 1 9t9 3h54q10 0 12 -4t6 -8l342 -580l340 580q8 12 18 12h56q4 0 9 -3t1 -9l-379 -644l408 -690q1 -3 1 -5q0 -7 -12 -7h-57q-8 0 -16 12l-369 627l-371 -627q-4 -12 -16 -12h-55q-6 0 -10 2q-2 1 -3 4q0 2 2 6z" />
<glyph unicode="Y" horiz-adv-x="985" d="M49 1346q-1 2 -1 4q0 6 13 6h54q10 0 14 -10l363 -682l362 682q4 8 8 9t8 1h54q11 0 11 -6q0 -2 -1 -4l-408 -746v-586q0 -14 -10 -14h-49q-14 0 -14 14l-2 586z" />
<glyph unicode="Z" horiz-adv-x="950" d="M70 12v35q0 10 3 18.5t7 18.5l715 1204h-674q-14 0 -15 12v46q0 12 15 12h743q8 0 9 -4t1 -6v-43q0 -18 -8 -35l-708 -1202h712q10 0 11 -13v-41q0 -14 -11 -14h-788q-12 0 -12 12z" />
<glyph unicode="[" horiz-adv-x="464" d="M100 -193v1602q0 14 11 14h256q10 0 10 -12v-35q0 -12 -10 -12h-191v-1511h189q2 0 6 -3q6 -6 6 -8v-35q0 -10 -12 -10h-254q-10 0 -11 10z" />
<glyph unicode="\" horiz-adv-x="471" d="M2 1405q-2 8 0 10t12 2h49q12 0 15 -12l377 -1532q4 -10 -13 -10h-49q-10 0 -12 10z" />
<glyph unicode="]" horiz-adv-x="464" d="M82 -158q0 4 6 8q2 2 6 3h189v1511h-191q-10 0 -10 12v35q0 12 10 12h256q10 0 10 -14v-1602q0 -10 -10 -10h-254q-12 0 -12 10v35z" />
<glyph unicode="^" horiz-adv-x="948" d="M63 821l332 514q4 8 9.5 14.5t23.5 6.5h92q16 0 18.5 -4t6.5 -13l336 -518q4 -4 4 -9t-4 -9l-19 -10q-10 -10 -16 0l-375 505l-365 -499q-10 -14 -18 -8l-22 14q-10 8 -3 16z" />
<glyph unicode="_" horiz-adv-x="1024" d="M-12 -199q0 12 12 13h1024q12 0 12 -13v-32q0 -8 -12 -9h-1024q-12 0 -12 11v30z" />
<glyph unicode="`" horiz-adv-x="966" d="M369 1395q-6 10 4 14l57 27q14 4 19 -6l137 -265q4 -10 2 -11t-6 -5l-25 -12q-10 -6 -16 4z" />
<glyph unicode="a" horiz-adv-x="1013" d="M92 244q0 176 84 253.5t264 77.5h355v119q0 63 -11.5 112.5t-42 81.5t-87 48t-144.5 16q-78 0 -153.5 -7t-153.5 -15q-14 0 -17 10l-4 23q0 10 11 14q35 12 77.5 21.5t85.5 14.5t81 7t67 2q104 0 174 -17.5t111.5 -57.5t58 -104.5t16.5 -158.5v-557q0 -53 19.5 -65.5 t77.5 -14.5q12 0 12 -12v-27q0 -14 -21 -16q-17 -1 -32 -1q-66 -1 -92 21q-32 26 -33 111q-51 -31 -100.5 -56.5t-103.5 -44t-115.5 -29.5t-137.5 -11q-127 0 -186.5 65.5t-59.5 196.5zM168 252q0 -119 46 -162t165 -43q53 0 117.5 17.5t124 41t106.5 47t68 33.5v324h-363 q-57 0 -105 -10.5t-84 -39t-55.5 -78.5t-19.5 -130z" />
<glyph unicode="b" horiz-adv-x="985" d="M102 74v1349q0 12 11 13h47q6 0 9 -1t3 -12v-467l6 -2q109 43 194 53.5t144 10.5q111 0 183.5 -34t115.5 -99.5t60.5 -161.5t17.5 -221q0 -268 -89 -394t-296 -126q-133 0 -218 11t-151 27q-25 6 -31 18.5t-6 35.5zM174 80q66 -12 150 -21.5t178 -9.5q63 0 120.5 16.5 t100.5 62.5t68.5 131t25.5 222q0 244 -64.5 357.5t-224.5 113.5q-78 0 -163.5 -14t-190.5 -45v-813z" />
<glyph unicode="c" horiz-adv-x="802" d="M92 506q0 104 12.5 197.5t51.5 163t112.5 110.5t196.5 41q27 0 65.5 -2t79.5 -7t81 -13.5t71 -18.5q12 -4 10 -16l-4 -21q-4 -12 -18 -10q-82 10 -148.5 16t-130.5 6q-86 0 -144.5 -23.5t-94 -76.5t-51 -138t-15.5 -206q0 -127 14.5 -214t49 -141.5t93 -79t148.5 -24.5 q63 0 144 6t137 15q10 2 12 -1t4 -10l4 -20q2 -12 -10 -16q-31 -10 -72 -18.5t-85 -13.5t-84 -7t-66 -2q-121 0 -191.5 37.5t-109.5 107.5t-50.5 166t-11.5 213z" />
<glyph unicode="d" horiz-adv-x="972" d="M92 483q0 133 17.5 233.5t59.5 167t113.5 100.5t180.5 34q59 0 146 -11.5t186 -52.5l6 2v469q0 12 10 13h51q6 0 6 -2v-11v-1413v-10t-6 -2h-53q-10 0 -10 12v109q-35 -20 -81 -45t-98.5 -45.5t-110.5 -34.5t-118 -14q-170 0 -234.5 121.5t-64.5 379.5zM166 477 q0 -123 14.5 -205t44 -132t74.5 -70.5t107 -20.5q45 0 102 15.5t112.5 38t103.5 45t75 38.5v709q-100 31 -185.5 45t-162.5 14q-156 0 -220.5 -112.5t-64.5 -364.5z" />
<glyph unicode="e" horiz-adv-x="942" d="M92 506q0 92 13.5 183t55.5 165t117.5 119t200.5 45q123 0 200 -37t119 -99.5t57 -143.5t15 -167q0 -45 -13 -65.5t-52 -20.5h-635q0 -86 10 -164.5t42 -139t93.5 -95.5t163.5 -35q82 0 157 7.5t157 15.5q16 0 18 -11l2 -18q4 -14 -8 -16q-31 -12 -74 -20.5t-89 -14.5 t-91 -8t-78 -2q-129 0 -204.5 43t-114.5 114.5t-50.5 167t-11.5 197.5zM168 545h627q-2 78 -11.5 150.5t-41 130t-94.5 91t-169 33.5q-94 0 -153.5 -30.5t-93 -85t-48 -128t-16.5 -161.5z" />
<glyph unicode="f" horiz-adv-x="643" d="M72 952v35q0 12 14 12h113v199q0 129 69.5 190.5t184.5 61.5q29 0 88 -5t123 -28q12 -4 18 -8q4 -2 4 -7q0 -3 -2 -7l-6 -21q-4 -10 -8 -11t-21 3q-57 10 -104 13t-70 3q-98 0 -151.5 -43t-53.5 -145v-195h289q12 0 12 -10v-37q0 -10 -12 -10h-289v-930q0 -12 -10 -12 h-47q-14 0 -14 12v930h-115q-12 0 -12 10z" />
<glyph unicode="g" horiz-adv-x="980" d="M90 500q0 268 88 394t297 126q133 0 218 -11.5t151 -27.5q27 -6 32 -18.5t5 -34.5v-961q0 -98 -16.5 -164.5t-57.5 -106.5t-108.5 -57.5t-170.5 -17.5q-37 0 -77.5 2t-83.5 6t-84 11.5t-74 19.5q-12 6 -10 18l2 21q2 10 18 10q74 -8 146.5 -15t146.5 -7q84 0 141.5 13 t92 44t50 82t15.5 127v90l-6 4q-109 -43 -193 -53t-143 -10q-111 0 -183.5 33.5t-116.5 99t-61.5 162t-17.5 221.5zM168 520q0 -244 64.5 -357.5t224.5 -113.5q78 0 163 14.5t189 45.5v813q-66 12 -150 21t-176 9q-63 0 -120.5 -16t-100.5 -62.5t-68.5 -131.5t-25.5 -222z " />
<glyph unicode="h" horiz-adv-x="960" d="M104 12v1413q0 12 7 13h53q10 0 10 -13v-551q31 18 77 43t99 46.5t113 37t119 15.5q102 0 157.5 -30t82 -81t30.5 -118.5t4 -141.5l2 -633q0 -12 -10 -12h-57q-6 0 -7 12v641q0 63 -4 118.5t-25.5 95.5t-65.5 63.5t-122 23.5q-45 0 -102 -16t-112.5 -37.5t-103.5 -45.5 t-75 -38v-805q0 -12 -10 -12h-53q-6 0 -7 12z" />
<glyph unicode="i" horiz-adv-x="403" d="M152 1266q0 23 9 37t40 14q33 0 42 -14t9 -37t-9.5 -39.5t-41.5 -16.5q-33 0 -41 16.5t-8 39.5zM166 12v973q0 12 12 12h49q8 0 9 -12v-973q0 -12 -11 -12h-47q-12 0 -12 12z" />
<glyph unicode="j" horiz-adv-x="425" d="M-39 -369q0 18 21 19q76 2 117.5 18.5t62 41t24.5 55t4 63.5v1159q0 12 11 12h49q12 0 12 -12v-1180q0 -35 -7 -74.5t-34.5 -72.5t-84.5 -54q-43 -15 -113 -15q-20 0 -43 1q-2 0 -10.5 3.5t-8.5 15.5v20zM176 1266q0 23 9.5 37t39.5 14q33 0 42 -14t9 -37t-9 -39.5 t-42 -16.5t-41 16.5t-8 39.5z" />
<glyph unicode="k" horiz-adv-x="823" d="M102 12v1413q0 12 13 13h49q8 0 8 -13v-940l174 174l340 328q12 12 29 12h51q27 0 8 -20l-362 -346l401 -619q3 -5 3 -9q0 -3 -2 -3q-5 -2 -9 -2h-47q-20 0 -31 18l-362 570l-193 -185v-391q0 -12 -10 -12h-47q-12 0 -13 12z" />
<glyph unicode="l" horiz-adv-x="413" d="M154 92v1333q0 12 12 13h51q8 0 8 -13v-1298q0 -27 2 -41t11.5 -22.5t28 -9.5t52.5 1q18 0 21 -10l4 -29q1 -3 1 -5q0 -12 -17 -17q-23 -6 -44.5 -8t-37.5 -2q-45 0 -68.5 23.5t-23.5 84.5z" />
<glyph unicode="m" horiz-adv-x="1587" d="M115 12v973q0 12 6 12h53q10 0 10 -12v-111q31 18 77 43t99.5 46.5t113 37t118.5 15.5q100 0 148 -43t69 -111q98 59 204.5 106.5t223.5 47.5q96 0 145.5 -41t70 -104.5t21.5 -142.5t1 -153v-563q0 -12 -11 -12h-55q-6 0 -6 12v572q0 63 -1 128.5t-16.5 120t-53.5 88 t-109 33.5q-45 0 -102.5 -16t-113 -38.5t-103.5 -46.5t-77 -36l-6 -4q9 -50 9 -105v-12q-1 -62 -1 -121l2 -563q0 -12 -10 -12h-57q-6 0 -6 12v572q0 63 -1 128.5t-16.5 120t-53.5 88t-109 33.5q-45 0 -102.5 -16t-113 -37.5t-103.5 -45.5t-75 -38v-805q0 -12 -10 -12h-53 q-6 0 -6 12z" />
<glyph unicode="n" horiz-adv-x="950" d="M102 12v973q0 12 11 12h45q14 0 14 -12v-111q31 18 77 43t99 46.5t113 37t119 15.5q102 0 158.5 -30t82 -81t30.5 -118.5t5 -141.5v-633q0 -12 -12 -12h-51q-10 0 -11 12v641q0 63 -4 118.5t-25.5 95.5t-65.5 63.5t-122 23.5q-45 0 -102 -16t-112.5 -37.5t-103.5 -45.5 t-75 -38v-805q0 -12 -14 -12h-45q-10 0 -11 12z" />
<glyph unicode="o" horiz-adv-x="976" d="M92 518q0 76 12.5 164t52.5 163t116.5 124t207.5 49q133 0 213 -43t122 -113.5t55.5 -160t13.5 -183.5q0 -92 -10.5 -187t-50.5 -172t-121 -126t-222 -49q-137 0 -215 48t-116.5 123.5t-48 171t-9.5 191.5zM168 502q0 -96 11 -179t45 -144.5t95.5 -96.5t161.5 -35 q102 0 167 34t100.5 94.5t48 143t12.5 183.5q0 100 -12.5 183t-47 141.5t-99.5 91t-169 32.5q-100 0 -161.5 -34.5t-95.5 -95t-45 -142.5t-11 -176z" />
<glyph unicode="p" horiz-adv-x="980" d="M127 -348v1335q0 12 6 12h53q10 0 11 -12v-108q35 20 81 44.5t99 45t111.5 35t117.5 14.5q84 0 141.5 -30t91 -91t48 -156.5t14.5 -224.5q0 -133 -16.5 -233.5t-58.5 -167t-112.5 -100t-181.5 -33.5q-59 0 -146 11t-185 52l-6 -2v-391q0 -12 -11 -12h-51q-6 0 -6 12z M197 104q102 -31 186 -45t162 -14q160 0 221 112.5t61 364.5q0 123 -14 206t-44 133t-74 70.5t-105 20.5q-45 0 -102.5 -16t-113 -37.5t-103.5 -46.5t-74 -39v-709z" />
<glyph unicode="q" horiz-adv-x="980" d="M88 498q0 266 89 393t302 127q131 0 214 -12.5t149 -26.5q27 -6 32 -18.5t5 -34.5v-1272q0 -14 -11 -14h-47q-10 0 -10 14v389l-6 2q-109 -43 -191 -53t-141 -10q-111 0 -184.5 33.5t-118.5 99t-63.5 162t-18.5 221.5zM166 518q0 -246 67.5 -358.5t227.5 -112.5 q78 0 161 14.5t187 44.5v814q-66 12 -147.5 21t-174.5 9q-68 0 -126 -16t-101 -62.5t-68.5 -131.5t-25.5 -222z" />
<glyph unicode="r" horiz-adv-x="544" d="M170 12v975q0 12 10 12h47q12 0 13 -12v-121q14 10 44.5 31t67.5 43.5t79 43t83 30.5q5 2 8.5 2t4.5 -2q3 -4 5 -15l11 -41q1 -6 1 -10q0 -14 -14 -16q-33 -10 -75.5 -25.5t-84.5 -33t-78 -34t-52 -24.5v-803q0 -12 -13 -12h-47q-10 0 -10 12z" />
<glyph unicode="s" horiz-adv-x="827" d="M84 39l4 20q0 10 16 11q27 -4 67 -7.5t82 -7.5t81 -6t63 -2q57 0 107.5 10.5t87.5 33t57.5 61.5t20.5 98q0 61 -14.5 101t-44 65.5t-78 40t-115.5 26.5q-76 12 -137.5 26.5t-104.5 42.5t-66.5 73t-23.5 118q0 133 79 204t249 71q27 0 63.5 -2t76.5 -7t78 -13.5t68 -18.5 q10 -4 11 -16l-4 -21q0 -10 -15 -10q-29 2 -63.5 6t-72.5 8t-76 6t-68 2q-129 0 -190.5 -47t-61.5 -155q0 -57 17.5 -92t50 -55.5t80.5 -31t110 -20.5q74 -12 133 -27.5t102 -46.5t66.5 -80t23.5 -129q0 -158 -94 -220t-254 -62q-29 0 -67.5 2t-80.5 6t-82 11t-71 18 q-10 4 -10 16z" />
<glyph unicode="t" horiz-adv-x="587" d="M70 952v35q0 12 14 12h127v234q0 12 10 16l37 15q12 5 17 5q3 0 3 -1q2 -4 3 -19v-250h223q10 0 10 -10v-37q0 -10 -10 -10h-223v-747q0 -35 3 -62t15 -46t37.5 -29.5t71.5 -10.5q29 0 73.5 2t69.5 6q10 2 12 -1t4 -9l4 -18q1 -4 1 -7q0 -4 -2 -6l-9 -6q-20 -6 -70.5 -15 t-115.5 -9q-96 0 -130 44t-34 144v770h-129q-12 0 -12 10z" />
<glyph unicode="u" horiz-adv-x="985" d="M117 354v633q0 12 12 12h49q10 0 10 -12v-641q0 -63 4.5 -118.5t26 -95.5t65.5 -63.5t122 -23.5q45 0 102 16.5t112.5 38t103.5 45t77 37.5v805q0 12 14 12h45q12 0 12 -12v-977q0 -10 -12 -10h-47q-14 0 -14 10v115q-31 -18 -76 -43t-99.5 -46.5t-114 -36.5t-118.5 -15 q-106 0 -162.5 29.5t-81 80.5t-27.5 119t-3 141z" />
<glyph unicode="v" horiz-adv-x="894" d="M49 987q-1 2 -1 4q0 6 9 6h49q16 0 21 -14l326 -903h4l319 905q4 14 21 14h43q11 0 11 -6q0 -3 -1 -8l-352 -973q-4 -12 -17 -12h-57q-16 0 -21 14z" />
<glyph unicode="w" horiz-adv-x="1355" d="M45 987q-1 2 -1 4q0 6 9 6h49q16 0 21 -14l285 -903h4l231 754l-49 153q-4 10 8 10h49q16 0 21 -14l284 -903h5l278 905q4 14 21 14h43q11 0 11 -6q0 -3 -1 -8l-312 -973q-4 -12 -16 -12h-57q-16 0 -21 14l-227 709l-227 -711q-4 -12 -17 -12h-57q-16 0 -21 14z" />
<glyph unicode="x" horiz-adv-x="829" d="M45 14l330 494l-309 473q-4 4 -3.5 10t11.5 6h47q12 0 20 -12l277 -424l276 424q8 12 21 12h47q10 0 10 -6t-4 -10l-307 -473l332 -492q4 -6 4 -10q0 -6 -13 -6h-47q-16 0 -24 10l-295 445l-291 -445q-8 -10 -25 -10h-51q-9 0 -9 6q0 3 3 8z" />
<glyph unicode="y" horiz-adv-x="901" d="M53 987q-1 3 -1 4q0 6 9 6h50q16 0 20 -14l307 -903h4l330 905q4 14 21 14h43q11 0 11 -6q0 -3 -1 -8l-486 -1335q-2 -4 -4 -7t-12 -3h-41q-10 0 -12 1t0 11l112 325z" />
<glyph unicode="z" horiz-adv-x="833" d="M66 14v37q0 16 10 31l618 858h-581q-14 0 -15 10v35q0 14 15 14h635q10 0 12 -1t2 -11v-37q0 -16 -10 -30l-613 -861h611q12 0 12 -10v-35q0 -14 -12 -14h-670q-14 0 -14 14z" />
<glyph unicode="{" horiz-adv-x="475" d="M47 602v21q0 8 4 9t15 5q39 12 61.5 36.5t33.5 57.5t14 70t3 73v396q0 37 4 67.5t19.5 54t42 36t73.5 12.5q39 0 74 -8q16 -4 19.5 -8.5t3.5 -8.5v-12q0 -10 -3 -11t-12 -1q-23 0 -40 -1t-27 -4q-35 -6 -52.5 -18t-25.5 -27.5t-8 -33v-35.5v-406q0 -37 -5 -76.5 t-17.5 -73.5t-35 -61.5t-57.5 -40.5v-2q72 -47 92.5 -105t22.5 -147v-428q0 -18 1 -36.5t9 -35t25.5 -27.5t52.5 -13l65 -4q14 -2 15 -13v-14q0 -14 -23 -16q-12 0 -27.5 -3t-46.5 -3q-47 0 -74.5 12t-42 34.5t-18.5 53.5t-4 67v418q0 37 -4 75t-16.5 69.5t-34 56.5 t-57.5 35q-10 4 -14.5 4t-4.5 10z" />
<glyph unicode="|" horiz-adv-x="432" d="M178 -225v1638q0 12 15 12h40q16 0 17 -12v-1638q0 -12 -14 -13h-39q-8 0 -13.5 1t-5.5 12z" />
<glyph unicode="}" horiz-adv-x="475" d="M53 -197q0 10 15 13l65 4q33 2 51.5 13t26.5 27.5t9 35t1 36.5v428q2 88 22.5 146.5t92.5 105.5v2q-35 12 -57.5 40t-35 62t-17.5 73.5t-5 76.5v406v35.5t-8 33t-25.5 27.5t-52.5 18q-10 2 -27.5 3.5t-39.5 1.5q-8 0 -11.5 1t-3.5 11v12q0 4 3 9.5t20 9.5q39 6 74 6 q47 0 74.5 -12.5t42 -36t18.5 -54t4 -67.5v-396q0 -37 3 -73.5t14 -69.5t33.5 -57.5t61.5 -36.5q10 -4 14.5 -5t4.5 -9v-21q0 -10 -4 -10t-15 -4q-37 -10 -58 -35t-33.5 -56.5t-16.5 -69.5t-4 -75v-418q0 -37 -4 -67.5t-18.5 -53t-42 -34.5t-74.5 -12q-31 0 -46.5 3t-27.5 3 q-23 2 -23 16v14z" />
<glyph unicode="~" d="M132 574.5q1 9.5 7 19.5q47 72 99.5 106.5t117.5 34.5q49 0 102.5 -23.5t105.5 -51t101.5 -50t92.5 -22.5q53 0 86 31.5t63 72.5q10 10 15.5 17.5t17.5 -0.5l21 -13q12 -8 12 -15t-4 -11q-41 -72 -93.5 -110t-119.5 -38q-51 0 -104.5 22.5t-104.5 50.5t-100.5 50.5 t-92.5 22.5q-53 0 -88 -32t-65 -73q-14 -18 -20.5 -21t-16.5 3l-21 12q-12 8 -11 17.5z" />
<glyph unicode="&#xa2;" d="M205 506q0 104 11 196.5t49 161t109.5 110.5t190.5 44v215q0 10 13 10h43q14 0 14 -10v-217q57 -4 123.5 -13.5t115.5 -25.5q12 -4 11 -16l-4 -21q-2 -4 -3 -7t-12 -3q-29 2 -63.5 6t-73.5 8t-77 6t-68 2q-86 0 -144.5 -23.5t-94.5 -76.5t-51 -138t-15 -206 q0 -127 16 -214t52 -141.5t94.5 -79t142.5 -24.5q63 0 144 6t136 15q10 2 12.5 -1t4.5 -10l4 -20q2 -12 -11 -16q-47 -16 -113.5 -25.5t-125.5 -13.5v-224q0 -10 -12 -10h-41q-16 0 -17 10v222q-119 0 -190.5 38.5t-109.5 107.5t-49 165t-11 213z" />
<glyph unicode="&#xa3;" d="M127 14v31q0 14 18 25q51 25 79 70.5t40 99t13.5 110t1.5 103.5v182h-121q-10 0 -11 14v35q0 10 11 10h121v344q0 154 91 245t251 91q33 0 75.5 -2t87.5 -7t87 -13.5t75 -20.5q14 -4 10 -18l-2 -23q-2 -6 -5 -9t-13 -1q-59 4 -146.5 11t-168.5 7q-129 0 -198 -68.5 t-69 -199.5v-336h443q10 0 10 -10v-35q0 -14 -10 -14h-443v-182q0 -55 -2 -112.5t-13 -110t-34.5 -95.5t-66.5 -69l700 2q12 0 12 -11v-47q0 -10 -12 -10h-797q-14 0 -14 14z" />
<glyph unicode="&#xa5;" d="M100 1346q-6 10 13 10h53q10 0 14 -10l363 -684l362 684q4 8 8.5 9t8.5 1h53q14 0 10 -10l-393 -721h356q12 0 13 -13v-47q0 -8 -13 -8h-794q-10 0 -11 10v45q0 12 11 13h335zM143 365v43q0 12 11 12h794q12 0 13 -12v-46q0 -8 -13 -8h-370v-340q0 -14 -11 -14h-49 q-14 0 -14 14v340h-350q-10 0 -11 11z" />
<glyph unicode="&#xa8;" horiz-adv-x="972" d="M276 1260q0 23 9.5 36t38.5 13q31 0 40 -13t9 -36t-9.5 -38.5t-39.5 -15.5q-33 0 -40.5 15.5t-7.5 38.5zM635 1260q0 23 9 36t38 13q31 0 40 -13t9 -36t-9 -38.5t-40 -15.5q-33 0 -40 15.5t-7 38.5z" />
<glyph unicode="&#xa9;" horiz-adv-x="1605" d="M86 686q0 150 56.5 281t152.5 227t226 152.5t278 56.5q154 0 283.5 -56.5t226 -152.5t150.5 -227t54 -281t-56 -281t-152.5 -227t-227.5 -152.5t-278 -56.5q-152 0 -283 56.5t-226 152.5t-149.5 227.5t-54.5 280.5zM145 686q0 -137 51.5 -258t140.5 -211t208 -142 t254 -52t255 52t209 142t140 211t51 258t-51 258t-140 211t-209 142.5t-255 52.5t-254 -52.5t-208 -142.5t-140.5 -211t-51.5 -258zM508 655q0 82 13.5 158t48 133.5t93 91t148.5 33.5q41 0 97.5 -6t92.5 -18q8 -4 9.5 -8.5t1.5 -12.5l-2 -16q0 -14 -19 -11q-6 0 -12 1 t-14 1q-35 4 -76 7.5t-78 3.5q-82 0 -130 -35t-73.5 -87t-33 -114.5t-7.5 -120.5q0 -59 9.5 -119.5t36 -109.5t73.5 -80t121 -31q41 0 95 3.5t89 7.5q6 0 13.5 -3.5t7.5 -9.5v-18q0 -14 -11 -14q-18 -6 -47.5 -11.5t-59.5 -8.5t-55.5 -4t-37.5 -1q-82 0 -138.5 31.5t-90 86 t-49 127t-15.5 154.5z" />
<glyph unicode="&#xab;" horiz-adv-x="710" d="M89 349q-1 7 7 18l205 260q8 10 12 14t23 4h41q6 0 7 -5t-3 -9l-221 -279l225 -276q4 -4 3 -9.5t-9 -5.5h-39q-18 0 -25.5 5.5t-13.5 13.5l-205 254q-6 8 -7 15zM344 334q-14 14 0 33l205 260q6 10 11 14t22 4h41q6 0 8 -5t-2 -9l-223 -279l225 -276q4 -4 3 -9.5t-7 -5.5 h-41q-18 0 -24.5 5.5t-12.5 13.5z" />
<glyph unicode="&#xad;" horiz-adv-x="704" d="M80 633v55q0 12 10 12h543q10 0 10 -12v-57q0 -8 -10 -8h-543q-10 0 -10 10z" />
<glyph unicode="&#xae;" horiz-adv-x="1042" d="M78 1036q0 94 34.5 176t94 142.5t140.5 95.5t173 35q94 0 175 -35t140.5 -95.5t93.5 -142.5t34 -176t-35 -176t-95.5 -143.5t-140.5 -96t-172 -34.5t-173 34.5t-140.5 96t-94 143.5t-34.5 176zM121 1036q0 -84 31.5 -158.5t85 -130t126 -87t156.5 -31.5q82 0 155 31.5 t126 87t85 130t32 158.5t-32 158t-85 129t-126 87t-155 32q-84 0 -156.5 -32t-126 -87t-85 -129t-31.5 -158zM379 760v540q0 10 14 11h158q66 0 114 -36t48 -122q0 -47 -23.5 -92t-81.5 -62l111 -233q8 -16 -4 -16h-29q-14 0 -18 10l-105 231h-137v-231q0 -10 -12 -10h-23 q-12 0 -12 10zM426 1034h125q12 0 31.5 3t38 15.5t33 36t14.5 64.5q0 66 -36 89.5t-91 23.5h-115v-232z" />
<glyph unicode="&#xb4;" horiz-adv-x="966" d="M438 1165l137 265q6 12 19 6l57 -27q10 -4 4 -14l-172 -254q-6 -10 -14 -4l-25 12q-10 6 -6 16z" />
<glyph unicode="&#xb8;" horiz-adv-x="802" d="M291 -344l6 18q4 10 18 9q35 -6 65 -9.5t52 -3.5q47 0 80 22.5t33 63.5t-25.5 64.5t-109.5 27.5q-10 0 -14.5 7.5t-0.5 17.5l60 152h51l-49 -134q96 -6 130 -41.5t34 -89.5q0 -74 -54.5 -109.5t-134.5 -35.5q-23 0 -59.5 6t-69.5 17q-16 6 -12 18z" />
<glyph unicode="&#xbb;" horiz-adv-x="710" d="M89 66.5q-1 5.5 3 9.5l225 276l-221 277q-12 16 4 16h41q16 0 21.5 -4t11.5 -12l205 -260q14 -20 2 -33l-207 -256q-6 -8 -12 -13.5t-25 -5.5h-41q-6 0 -7 5.5zM336 66.5q-2 5.5 2 9.5l225 276l-221 277q-12 16 4 16h41q18 0 22.5 -4t12.5 -12l205 -260q12 -20 0 -33 l-205 -256q-6 -8 -13.5 -13.5t-23.5 -5.5h-41q-6 0 -8 5.5z" />
<glyph unicode="&#x2c6;" horiz-adv-x="976" d="M216 1156q-1 1 5 9l203 228q6 8 11 11t18 3h73q12 0 18.5 -3t12.5 -11l195 -228q8 -8 6 -9t-6 -5l-23 -21q-6 -4 -16 3l-226 206l-227 -206q-10 -6 -16 -3l-23 21z" />
<glyph unicode="&#x2da;" horiz-adv-x="1019" d="M367 1276q0 80 56 131t130 51q39 0 72.5 -15.5t58.5 -40t39 -57t14 -69.5q0 -74 -52 -129t-132 -55q-74 0 -130 51t-56 133zM428 1276q0 -57 34 -94t91 -37q55 0 91 37t36 94q0 53 -36 92t-91 39q-53 0 -89 -39t-36 -92z" />
<glyph unicode="&#x2dc;" horiz-adv-x="976" d="M192 1212.5q1 10.5 7 20.5q68 113 161 113q35 0 74 -17.5t77 -38t73.5 -38t62.5 -17.5q37 0 60.5 23.5t44.5 58.5q6 10 10 13t16 -3l21 -10q10 -6 8 -14.5t-4 -12.5q-59 -117 -158 -116q-41 0 -79 17t-73.5 36.5t-69.5 37t-65 17.5t-57.5 -22.5t-48.5 -55.5 q-10 -16 -16.5 -18t-16.5 2l-16 8q-12 6 -11 16.5z" />
<glyph unicode="&#x401;" horiz-adv-x="964" d="M141 10v1333q0 14 11 15h706q10 0 10 -12v-46q0 -12 -10 -12h-641v-549h578q10 0 10 -10v-41q0 -14 -10 -14h-578v-606h653q12 0 13 -11v-47q0 -10 -13 -10h-718q-10 0 -11 10zM297 1542q0 23 10 37t39 14q31 0 39 -14t8 -37t-8 -37t-39 -14q-33 0 -41 15.5t-8 35.5z M627 1542q0 23 10 37t39 14q31 0 39 -14t8 -37t-8 -37t-39 -14q-33 0 -41 15.5t-8 35.5z" />
<glyph unicode="&#x402;" horiz-adv-x="1376" d="M6 1300v46q0 12 12 12h1047q10 0 10 -12v-46q0 -10 -10 -10h-588v-440q92 43 195.5 75.5t216.5 32.5t190.5 -40.5t125.5 -107.5t68.5 -151t20.5 -170q0 -92 -17 -191t-63.5 -191.5t-126 -169t-204.5 -121.5q-2 0 -9.5 -2t-11.5 8l-10 22q-4 10 0 15.5t10 9.5 q180 94 267.5 241.5t87.5 374.5q0 104 -27 180t-74 125.5t-110.5 72t-137.5 22.5q-47 0 -99 -10.5t-104.5 -25.5t-101.5 -34.5t-88 -40.5v-762q0 -12 -10 -12h-49q-14 0 -15 12v1278h-383q-12 0 -12 10z" />
<glyph unicode="&#x403;" horiz-adv-x="917" d="M147 14v1329q0 14 11 15h696q10 0 10 -12v-46q0 -12 -10 -12h-631v-1274q0 -14 -10 -14h-53q-12 0 -13 14zM386 1490q-1 3 7 9l246 170q8 4 10 4t8 -8l39 -49q6 -10 -4 -17l-270 -143q-10 -4 -14 4l-17 23q-4 4 -5 7z" />
<glyph unicode="&#x404;" horiz-adv-x="1046" d="M100 664q0 143 19.5 272t75 225t152.5 153.5t253 57.5q33 0 80 -2t95 -6t94 -12.5t79 -20.5q14 -4 10 -18l-2 -23q-2 -6 -5 -9t-13 -1q-31 2 -69 5t-81 6t-87 5t-85 2q-141 0 -227 -53t-132 -138t-61.5 -192.5t-17.5 -216.5h572q10 0 10 -10v-41q0 -14 -10 -14h-572 q2 -115 20.5 -218.5t66.5 -183t132 -127t215 -47.5q35 0 79 1t88 4.5t86 5.5t73 6q16 0 18 -13l5 -22q0 -12 -13 -19q-33 -12 -83 -19t-101 -11t-96 -6t-68 -2q-154 0 -251 53t-152.5 146t-76 217.5t-20.5 265.5z" />
<glyph unicode="&#x405;" horiz-adv-x="1024" d="M98 53l4 23q4 12 19 10q47 -6 99 -11t102.5 -9.5t94.5 -6.5t77 -2q166 0 264 72t98 203q0 86 -22.5 143t-64.5 94t-104.5 58.5t-142.5 34.5q-96 16 -174 37.5t-133 59.5t-85 96t-30 151q0 178 112 271t304 93q90 0 182.5 -7t169.5 -36q14 -4 11 -18l-2 -23q-2 -6 -5.5 -9 t-13.5 -1l-60 6t-88 8t-98.5 6t-89.5 2q-174 0 -258 -76.5t-84 -209.5q0 -76 28 -124t74 -78t107.5 -45t128.5 -28q84 -16 160 -36.5t132 -61.5t90 -107.5t34 -173.5q0 -104 -35 -176.5t-95.5 -117t-141 -63.5t-173.5 -19q-31 0 -84 4t-110 11t-108.5 16.5t-77.5 19.5 q-14 6 -11 20z" />
<glyph unicode="&#x406;" horiz-adv-x="458" d="M190 12v1334q0 12 11 12h53q10 0 10 -12v-1334q0 -12 -10 -12h-53q-10 0 -11 12z" />
<glyph unicode="&#x407;" horiz-adv-x="458" d="M12 1542q0 23 10.5 37t38.5 14q31 0 39.5 -14t8.5 -37t-8.5 -37t-39.5 -14q-33 0 -41 15.5t-8 35.5zM190 12v1334q0 12 11 12h53q10 0 10 -12v-1334q0 -12 -10 -12h-53q-10 0 -11 12zM342 1542q0 23 10 37t39 14q31 0 39 -14t8 -37t-8 -37t-39 -14q-33 0 -41 15.5 t-8 35.5z" />
<glyph unicode="&#x408;" horiz-adv-x="808" d="M20 37l7 22q2 14 18 13q82 -10 139.5 -12.5t81.5 -2.5q88 0 144.5 22.5t87 63.5t41 98.5t10.5 127.5v977q0 12 10 12h55q10 0 11 -12v-1012q0 -78 -16.5 -143.5t-57.5 -112.5t-108.5 -72.5t-172.5 -25.5q-20 0 -50 2t-61.5 6t-65.5 12t-62 18q-12 8 -11 19z" />
<glyph unicode="&#x409;" horiz-adv-x="1748" d="M10 10v25q0 12 4 14t19 4q72 8 116 38t69.5 79t35.5 120.5t16 164.5l54 891q0 12 10 12h622q12 0 13 -15l-2 -569h372q111 0 181.5 -34.5t111.5 -91t57.5 -128t16.5 -143.5q0 -94 -29.5 -165t-82 -118t-123 -70.5t-154.5 -23.5h-412q-14 0 -14 12v1278h-494l-57 -909 q-6 -90 -22.5 -160.5t-50.5 -122t-88 -81t-136 -33.5q-23 -2 -28 4t-5 22zM967 68h327q74 0 135.5 18t105.5 57t69.5 98.5t25.5 139.5q0 111 -32.5 175.5t-81 98t-102.5 44t-95 10.5h-352v-641z" />
<glyph unicode="&#x40a;" horiz-adv-x="1603" d="M147 12v1334q0 12 11 12h53q10 0 10 -12v-572h516v569q0 14 15 15h49q12 0 12 -15v-569h377q102 0 172 -34.5t112 -91t60 -128t18 -143.5q0 -94 -29.5 -165t-81.5 -118t-123 -70.5t-155 -23.5h-411q-14 0 -15 12v697h-516v-697q0 -12 -10 -12h-53q-10 0 -11 12zM813 68 h328q74 0 135 18t105 57t70 98.5t26 139.5q0 111 -38 175.5t-88.5 98t-102.5 44t-79 10.5h-356v-641z" />
<glyph unicode="&#x40b;" horiz-adv-x="1400" d="M27 1300v46q0 12 12 12l1079 -2q10 0 10 -13v-45q0 -10 -10 -10l-620 2v-454q37 16 90 36.5t113.5 39t124 30.5t122.5 12q100 0 167 -31.5t108 -85t58 -123t17 -143.5v-559q0 -12 -10 -12h-55q-8 0 -8 12v568q0 139 -67.5 220t-213.5 81q-47 0 -108.5 -12.5t-125 -31 t-119.5 -39t-95 -38.5v-748q0 -12 -13 -12h-47q-14 0 -14 12v1278h-383q-12 0 -12 10z" />
<glyph unicode="&#x40c;" horiz-adv-x="1073" d="M143 16v1327q0 14 13 15h47q14 0 14 -15v-606h320q29 0 62.5 6.5t67 27t62.5 57t49 96.5l135 411q6 23 25 23h31q23 0 14 -23l-135 -417q-29 -88 -67 -139.5t-101 -65.5q78 -16 118 -65.5t74 -158.5l140 -464q6 -25 -13 -25h-36q-10 0 -15.5 2t-9.5 14l-139 467 q-18 59 -42 96t-54.5 56.5t-68.5 27t-87 7.5h-330v-654q0 -16 -14 -16h-47q-12 0 -13 16zM409 1490q-1 3 7 9l246 170q8 4 10 4t8 -8l39 -49q6 -10 -4 -17l-271 -143q-10 -4 -14 4l-16 23q-4 4 -5 7z" />
<glyph unicode="&#x40e;" horiz-adv-x="993" d="M47 1348q-6 10 12 10h56q10 0 14 -10l371 -945l366 945q4 8 8.5 9t8.5 1h49q14 0 10 -10l-403 -1041q-31 -80 -57.5 -140.5t-57.5 -100t-71 -60t-101 -24.5q-33 -2 -65.5 3t-59.5 15q-12 8 -10 18l6 27q4 18 27 14q35 -8 58 -10t42 0q74 6 111.5 56.5t74.5 142.5l25 61z M251 1609.5q-5 12.5 5 20.5l20 15q16 12 27 -7q49 -74 95 -101.5t112 -27.5q53 0 101 30t100 101q10 14 26 7l19 -13q10 -8 5 -18t-11 -25q-43 -80 -107.5 -115.5t-134.5 -35.5q-72 0 -140.5 34.5t-107.5 112.5z" />
<glyph unicode="&#x40f;" horiz-adv-x="1167" d="M156 12v1334q0 12 10 12h53q10 0 10 -12v-1278h727v1278q0 12 15 12h49q10 0 10 -12v-1334q0 -12 -10 -12h-377l-12 -283q-2 -23 -6 -29.5t-13 -6.5h-30q-10 0 -14.5 7t-4.5 29l-12 283h-385q-10 0 -10 12z" />
<glyph unicode="&#x410;" horiz-adv-x="1069" d="M39 12l444 1331q4 10 7.5 11.5t9.5 1.5h63q10 0 17 -15l446 -1329q4 -8 3 -10t-11 -2h-55q-4 0 -8.5 1t-8.5 11l-119 371h-591l-119 -371q-2 -10 -5 -11t-10 -1h-51q-16 0 -12 12zM258 451h547l-273 819h-6z" />
<glyph unicode="&#x411;" horiz-adv-x="987" d="M131 14v1329q0 14 14 15l676 -2q10 0 10 -13v-43q0 -12 -10 -12l-614 2v-518h336q102 0 175 -35t119 -91t67.5 -126.5t21.5 -142.5q0 -94 -30 -164t-82 -116t-122.5 -69.5t-154.5 -23.5l-392 -2q-14 0 -14 12zM207 72h305q74 0 135.5 18.5t105.5 56t69.5 96t25.5 138.5 q0 111 -38 175.5t-88 98t-102.5 44t-78.5 10.5h-334v-637z" />
<glyph unicode="&#x412;" horiz-adv-x="1075" d="M131 16v1325q0 14 14 15l439 2q174 0 269 -91t95 -237q0 -35 -6 -79t-26.5 -87t-58.5 -83t-99 -66v-2q68 -23 112.5 -64t71.5 -92t37 -105.5t10 -99.5q0 -82 -25.5 -146.5t-70.5 -110.5t-107.5 -70.5t-136.5 -24.5h-493q-16 0 -20.5 5t-4.5 11zM209 68h391 q88 0 147.5 23.5t94.5 64.5t49 95t14 116q0 57 -19.5 112.5t-58.5 98.5t-97 69.5t-134 26.5h-387v-606zM209 739h346q154 0 231.5 77t77.5 200q0 121 -71.5 196.5t-227.5 75.5h-356v-549z" />
<glyph unicode="&#x413;" horiz-adv-x="917" d="M147 14v1329q0 14 11 15h696q10 0 10 -12v-46q0 -12 -10 -12h-631v-1274q0 -14 -10 -14h-53q-12 0 -13 14z" />
<glyph unicode="&#x414;" horiz-adv-x="1236" d="M23 14q-2 23 3 31t17 12l57 11q80 72 122 199.5t54 287.5l58 778q0 8 5 16.5t17 8.5h721q10 0 10 -12v-1278l62 -7q16 -4 21.5 -11t5.5 -25l-11 -293q-2 -23 -6 -30t-12 -7h-29q-10 0 -16 7t-6 30l-13 268h-974l-11 -268q-2 -23 -6 -30t-12 -7h-31q-10 0 -14 7t-4 30z M201 68h813v1222h-608l-56 -719q-6 -78 -17 -152.5t-28.5 -141t-43 -121t-60.5 -88.5z" />
<glyph unicode="&#x415;" horiz-adv-x="964" d="M141 10v1333q0 14 11 15h706q10 0 10 -12v-46q0 -12 -10 -12h-641v-549h578q10 0 10 -10v-41q0 -14 -10 -14h-578v-606h653q12 0 13 -11v-47q0 -10 -13 -10h-718q-10 0 -11 10z" />
<glyph unicode="&#x416;" horiz-adv-x="1626" d="M43 25l139 464q35 109 75 158t118 66q-63 14 -101 65t-67 140l-135 417q-8 23 14 23h31q18 0 24 -23l135 -411q20 -59 49 -96t63 -57.5t67.5 -27t62.5 -6.5h258v606q0 14 12 15h48q14 0 14 -15v-606h258q29 0 62.5 6.5t67.5 27t62.5 57t49.5 96.5l135 411q6 23 24 23h31 q23 0 14 -23l-135 -417q-29 -88 -66.5 -139.5t-101.5 -65.5q78 -16 118 -65.5t75 -158.5l139 -464q6 -25 -12 -25h-37q-10 0 -15.5 2t-9.5 14l-139 467q-18 59 -41.5 96t-54.5 56.5t-69 27t-87 7.5h-268v-654q0 -16 -14 -16h-48q-12 0 -12 16v654h-268q-49 0 -87 -7.5 t-68.5 -27t-54.5 -56t-42 -96.5l-139 -467q-4 -12 -9.5 -14t-15.5 -2h-37q-18 0 -12 25z" />
<glyph unicode="&#x417;" horiz-adv-x="958" d="M8 53l4 23q2 12 19 10q45 -8 97 -13t103.5 -9.5t95.5 -6.5t70 -2q172 0 278.5 76t106.5 238q0 92 -26.5 151.5t-75.5 95t-120 50t-159 14.5h-49q-14 0 -14 12v43q0 14 14 15h29q74 0 142.5 21.5t120.5 60t83 93t31 117.5q0 88 -34 140.5t-85 79t-109.5 34t-109.5 7.5 q-27 0 -67 -2.5t-83 -7.5t-86 -11t-73 -12q-12 -4 -14.5 -1t-6.5 11l-6 20q-4 10 -1 13.5t13 7.5q45 16 92.5 27.5t91.5 17.5t81.5 9t64.5 3q115 0 194.5 -21.5t129 -63.5t72 -104.5t22.5 -141.5q0 -49 -16.5 -99.5t-49.5 -93.5t-83 -76t-117 -51v-4q135 -31 211.5 -108.5 t76.5 -231.5q0 -111 -36.5 -187.5t-101 -123.5t-154 -67.5t-191.5 -20.5q-35 0 -84 3t-99 9t-98.5 15t-83.5 24q-14 4 -10 18z" />
<glyph unicode="&#x418;" horiz-adv-x="1234" d="M143 1343q0 14 15 15h49q10 0 10 -15v-1212h4l785 1215l6 9t12 3h55q12 0 13 -15l2 -1329q0 -14 -15 -14h-49q-10 0 -10 14v1213h-4l-785 -1215q-4 -8 -6 -10t-12 -2h-55q-12 0 -13 14z" />
<glyph unicode="&#x419;" horiz-adv-x="1234" d="M143 1343q0 14 15 15h49q10 0 10 -15v-1212h4l785 1215l6 9t12 3h55q12 0 13 -15l2 -1329q0 -14 -15 -14h-49q-10 0 -10 14v1213h-4l-785 -1215q-4 -8 -6 -10t-12 -2h-55q-12 0 -13 14zM347 1609.5q-5 12.5 5 20.5l21 15q16 12 26 -7q49 -74 95.5 -101.5t111.5 -27.5 q53 0 101.5 30t99.5 101q10 14 27 7l18 -13q10 -8 5 -18t-11 -25q-43 -80 -107.5 -115.5t-134.5 -35.5q-72 0 -140.5 34.5t-107.5 112.5z" />
<glyph unicode="&#x41a;" horiz-adv-x="1073" d="M143 16v1327q0 14 13 15h47q14 0 14 -15v-606h320q29 0 62.5 6.5t67 27t62.5 57t49 96.5l135 411q6 23 25 23h31q23 0 14 -23l-135 -417q-29 -88 -67 -139.5t-101 -65.5q78 -16 118 -65.5t74 -158.5l140 -464q6 -25 -13 -25h-36q-10 0 -15.5 2t-9.5 14l-139 467 q-18 59 -42 96t-54.5 56.5t-68.5 27t-87 7.5h-330v-654q0 -16 -14 -16h-47q-12 0 -13 16z" />
<glyph unicode="&#x41b;" horiz-adv-x="1173" d="M10 10v25q0 12 4 14t19 4q72 8 116 38t69.5 79t35.5 120.5t16 164.5l54 891q0 12 10 12h684q10 0 10 -12v-1334q0 -12 -10 -12h-49q-14 0 -15 12v1278h-557l-57 -909q-6 -90 -22.5 -160.5t-50.5 -122t-88 -81t-136 -33.5q-23 -2 -28 4t-5 22z" />
<glyph unicode="&#x41c;" horiz-adv-x="1460" d="M150 14v1329q0 14 12 15h57q14 0 19 -12l491 -1024h2l490 1019q4 10 6 13.5t18 3.5h49q16 0 17 -17v-1327q0 -14 -11 -14h-49q-14 0 -14 14v1188h-4l-463 -956q-8 -14 -16 -15h-45q-16 0 -21 13l-461 958h-4v-1188q0 -14 -10 -14h-49q-14 0 -14 14z" />
<glyph unicode="&#x41d;" horiz-adv-x="1167" d="M147 12v1334q0 12 11 12h53q10 0 10 -12v-592h727v592q0 12 15 12h49q10 0 10 -12v-1334q0 -12 -10 -12h-49q-14 0 -15 12v676h-727v-676q0 -12 -10 -12h-53q-10 0 -11 12z" />
<glyph unicode="&#x41e;" horiz-adv-x="1261" d="M129 698q0 68 6 145t24.5 151.5t52.5 143t89 121t134 84t188 31.5q164 0 263 -57t153.5 -151.5t71.5 -216.5t17 -251t-15 -257t-67.5 -230t-152.5 -165.5t-270 -63.5t-267.5 63.5t-148.5 165.5t-64.5 230t-13.5 257zM205 678q0 -129 17.5 -244t63.5 -201t127 -135 t210 -49q125 0 207.5 46t133 130t72 199t21.5 254q0 141 -19.5 257t-68.5 199t-133 128t-213 45q-123 0 -204 -48.5t-129 -132.5t-66.5 -198.5t-18.5 -249.5z" />
<glyph unicode="&#x41f;" horiz-adv-x="1167" d="M147 12v1334q0 12 11 12h854q10 0 10 -12v-1334q0 -12 -10 -12h-49q-14 0 -15 12v1278h-727v-1278q0 -12 -10 -12h-53q-10 0 -11 12z" />
<glyph unicode="&#x420;" horiz-adv-x="987" d="M131 14v1332q0 12 14 12h392q84 0 154.5 -23.5t122.5 -70.5t82 -117t30 -164q0 -72 -21.5 -142.5t-67.5 -127t-119 -91t-175 -34.5h-336v-574q0 -14 -12 -14h-50q-14 0 -14 14zM207 653h334q27 0 79 9.5t102 43t88 98t38 175.5q0 80 -25.5 138.5t-69.5 96t-105.5 56 t-135.5 18.5h-305v-635z" />
<glyph unicode="&#x421;" horiz-adv-x="1046" d="M145 664q0 143 19.5 272t75 225t152.5 153.5t253 57.5q33 0 80 -2t95 -6t94.5 -12.5t78.5 -20.5q14 -4 11 -18l-3 -23q-2 -6 -5 -9t-13 -1q-31 2 -68.5 5t-80.5 6t-87.5 5t-84.5 2q-147 0 -234.5 -57t-132.5 -147t-58.5 -204t-13.5 -226q0 -119 16.5 -228.5t64.5 -193.5 t133 -134.5t220 -50.5q35 0 79 1t88 4.5t86 5.5t73 6q16 0 18 -13l5 -22q0 -12 -13 -19q-33 -12 -83 -19t-101 -11t-96 -6t-68 -2q-154 0 -251 53t-152.5 146t-76 217.5t-20.5 265.5z" />
<glyph unicode="&#x422;" horiz-adv-x="931" d="M35 1300v46q0 12 12 12h844q10 0 10 -12v-46q0 -10 -10 -10h-385l-2 -1278q0 -12 -10 -12h-50q-14 0 -14 12v1278h-383q-12 0 -12 10z" />
<glyph unicode="&#x423;" horiz-adv-x="993" d="M47 1348q-6 10 12 10h56q10 0 14 -10l371 -945l366 945q4 8 8.5 9t8.5 1h49q14 0 10 -10l-403 -1041q-31 -80 -57.5 -140.5t-57.5 -100t-71 -60t-101 -24.5q-33 -2 -65.5 3t-59.5 15q-12 8 -10 18l6 27q4 18 27 14q35 -8 58 -10t42 0q74 6 111.5 56.5t74.5 142.5l25 61z " />
<glyph unicode="&#x424;" horiz-adv-x="1409" d="M100 684q0 279 139.5 437.5t434.5 172.5v52q0 12 10 12h53q10 0 11 -12v-52q154 -6 259 -50t171.5 -123t95.5 -189.5t29 -247.5q0 -135 -31 -244.5t-96.5 -188.5t-172 -126t-255.5 -55v-58q0 -12 -11 -12h-53q-10 0 -10 12v60q-170 4 -280.5 58t-176 140t-91.5 194.5 t-26 219.5zM174 684q0 -115 24.5 -213t83 -170t153.5 -116t239 -52v1098q-154 -8 -251 -58.5t-152.5 -126t-76 -170t-20.5 -192.5zM750 133q137 8 229 51t147.5 115t79 168t23.5 213q0 82 -14.5 178t-64.5 177t-145.5 136.5t-254.5 57.5v-1096z" />
<glyph unicode="&#x425;" horiz-adv-x="1015" d="M57 12l408 690l-379 644q-4 6 1 9t9 3h54q10 0 12 -4t6 -8l342 -580l340 580q8 12 18 12h56q4 0 9 -3t1 -9l-379 -644l408 -690q4 -12 -11 -12h-57q-8 0 -16 12l-369 627l-371 -627q-4 -12 -16 -12h-55q-6 0 -10.5 2t-0.5 10z" />
<glyph unicode="&#x426;" horiz-adv-x="1191" d="M156 12v1334q0 12 10 12h53q10 0 10 -12v-1278h727v1278q0 12 15 12h49q10 0 10 -12v-1274l62 -6q16 -2 22 -8.5t4 -28.5l-14 -297q-2 -20 -7 -25.5t-16 -5.5h-20q-10 0 -16.5 4t-6.5 27l-6 268h-866q-10 0 -10 12z" />
<glyph unicode="&#x427;" horiz-adv-x="1052" d="M68 977v366q0 14 16 15h45q14 0 14 -12v-369q0 -104 29 -166.5t74 -96.5t99 -45.5t106 -11.5q102 0 191 16.5t189 51.5v618q0 14 17 15h45q14 0 14 -12v-1332q0 -14 -14 -14h-49q-12 0 -13 14v643q-86 -31 -188 -51t-213 -20q-113 0 -183.5 33.5t-110.5 89t-54 126 t-14 142.5z" />
<glyph unicode="&#x428;" horiz-adv-x="1728" d="M156 12v1334q0 12 10 12h53q10 0 10 -12v-1278h596v1278q0 12 11 12h53q10 0 10 -12v-1278h602v1278q0 12 15 12h49q10 0 10 -12v-1334q0 -12 -10 -12h-1399q-10 0 -10 12z" />
<glyph unicode="&#x429;" horiz-adv-x="1736" d="M156 12v1334q0 12 10 12h53q10 0 10 -12v-1278h596v1278q0 12 11 12h53q10 0 10 -12v-1278h602v1278q0 12 15 12h49q10 0 10 -12v-1274l61 -6q16 -2 22.5 -8.5t4.5 -28.5l-14 -297q-2 -20 -7.5 -25.5t-15.5 -5.5h-20q-10 0 -16.5 4t-6.5 27l-6 268h-1411q-10 0 -10 12z " />
<glyph unicode="&#x42a;" horiz-adv-x="1308" d="M4 1300v46q0 12 10 12h490q12 0 12 -15v-569h377q102 0 172 -34.5t112 -91t60 -128t18 -143.5q0 -94 -29.5 -165t-81.5 -118t-123 -70.5t-155 -23.5h-411q-14 0 -15 12v1278h-426q-10 0 -10 10zM516 68h328q74 0 135 18t105 57t70 98.5t26 139.5q0 111 -38 175.5t-88 98 t-102.5 44t-79.5 10.5h-356v-641z" />
<glyph unicode="&#x42b;" horiz-adv-x="1345" d="M147 12v1331q0 14 15 15h49q12 0 12 -15v-569h377q102 0 172 -34.5t112 -91t60.5 -128t18.5 -143.5q0 -94 -30 -165t-82 -118t-123 -70.5t-155 -23.5h-411q-14 0 -15 12zM223 68h328q74 0 135.5 18t105.5 57t69.5 98.5t25.5 139.5q0 111 -38 175.5t-88 98t-102.5 44 t-78.5 10.5h-357v-641zM1124 12v1334q0 12 11 12h53q10 0 10 -12v-1334q0 -12 -10 -12h-53q-10 0 -11 12z" />
<glyph unicode="&#x42c;" horiz-adv-x="1013" d="M147 12v1331q0 14 15 15h49q12 0 12 -15v-569h377q102 0 172 -34.5t112 -91t60.5 -128t18.5 -143.5q0 -94 -30 -165t-82 -118t-123 -70.5t-155 -23.5h-411q-14 0 -15 12zM223 68h328q74 0 135.5 18t105.5 57t69.5 98.5t25.5 139.5q0 111 -38 175.5t-88 98t-102.5 44 t-78.5 10.5h-357v-641z" />
<glyph unicode="&#x42d;" horiz-adv-x="1046" d="M78 39l4 22q2 12 18 13q31 -4 72 -6t86 -5.5t89 -4.5t79 -1q135 0 220 52.5t133 138.5t66.5 195.5t20.5 224.5h-571q-10 0 -10 14v41q0 10 10 10h571q-2 100 -17 201.5t-61.5 182.5t-132.5 131t-227 50q-82 0 -160 -7t-137 -11q-10 -2 -13 1t-5 9l-2 23q-4 14 10 18 q33 12 75 20.5t86 12.5t86 6t76 2q158 0 256.5 -52t152.5 -144.5t72.5 -216.5t18.5 -267q0 -141 -21.5 -270t-79 -226.5t-154.5 -155.5t-251 -58q-23 0 -67.5 2t-96 6t-101.5 11t-83 19q-12 6 -12 19z" />
<glyph unicode="&#x42e;" horiz-adv-x="1492" d="M147 12v1334q0 12 11 12h53q10 0 10 -12v-592h201q2 100 21.5 209.5t69.5 200.5t141 150.5t237 59.5q156 0 250 -57t145 -151.5t67.5 -216.5t16.5 -251t-14.5 -257t-63.5 -230t-144 -165.5t-257 -63.5q-160 0 -253 62t-141 162.5t-61.5 226.5t-13.5 255h-201v-676 q0 -12 -10 -12h-53q-10 0 -11 12zM498 678q0 -129 15 -244t58 -201t120 -135t200 -49q119 0 196.5 46t125 130t66.5 199t19 254q0 141 -17 257t-63.5 199t-125 128t-201.5 45q-117 0 -193.5 -48.5t-121 -132.5t-61.5 -198.5t-17 -249.5z" />
<glyph unicode="&#x42f;" horiz-adv-x="1071" d="M59 25l119 403q29 92 63.5 140t100.5 71q-59 14 -99 48t-65.5 79t-37 97t-11.5 108q0 98 33 172t88 121t128 70.5t154 23.5h377q14 0 15 -12v-1332q0 -14 -15 -14h-49q-12 0 -12 14v594h-320q-49 0 -91 -7t-76.5 -26.5t-62.5 -56.5t-46 -96l-119 -406q-4 -12 -9 -14 t-15 -2h-37q-18 0 -13 25zM207 967q0 -111 42 -170.5t98 -86t112.5 -30.5t85.5 -4h303v612h-291q-74 0 -137.5 -18.5t-110.5 -57t-74.5 -99t-27.5 -146.5z" />
<glyph unicode="&#x430;" horiz-adv-x="1013" d="M92 244q0 176 84 253.5t264 77.5h355v119q0 63 -11.5 112.5t-42 81.5t-87 48t-144.5 16q-78 0 -153.5 -7t-153.5 -15q-14 0 -17 10l-4 23q0 10 11 14q35 12 77.5 21.5t85.5 14.5t81 7t67 2q104 0 174 -17.5t111.5 -57.5t58 -104.5t16.5 -158.5v-557q0 -53 19.5 -65.5 t77.5 -14.5q12 0 12 -12v-27q0 -14 -21 -16q-92 -6 -124.5 20.5t-32.5 110.5q-51 -31 -100.5 -56.5t-103.5 -44t-115.5 -29.5t-137.5 -11q-127 0 -186.5 65.5t-59.5 196.5zM168 252q0 -119 46 -162t165 -43q53 0 117.5 17.5t124 41t106.5 47t68 33.5v324h-363 q-57 0 -105 -10.5t-84 -39t-55.5 -78.5t-19.5 -130z" />
<glyph unicode="&#x431;" horiz-adv-x="978" d="M92 485q0 145 7 278.5t46 243t119 190.5t228 122q66 18 151.5 33.5t155.5 27.5q12 2 17 0t7 -12l4 -25q2 -16 -3 -19t-13 -5q-84 -16 -143.5 -26.5t-112.5 -24.5q-96 -25 -163.5 -63t-111.5 -95t-69 -135t-35 -180l6 -4q43 66 129 115.5t199 49.5q127 0 201.5 -46 t113.5 -113.5t50.5 -143t11.5 -135.5q0 -86 -12.5 -180t-54.5 -173t-125 -130t-224 -51q-137 0 -213 49t-112.5 122.5t-45 161.5t-8.5 168zM170 492q0 -96 10 -177.5t43 -140.5t93.5 -93t160.5 -34q102 0 168 35t102.5 96.5t50 144.5t13.5 179q0 70 -12.5 139.5t-46 124.5 t-95 89t-159.5 34q-100 0 -164 -40t-100.5 -99.5t-50 -129t-13.5 -128.5z" />
<glyph unicode="&#x432;" horiz-adv-x="940" d="M102 16v969q0 14 17 14h409q78 0 133.5 -19t91 -54t52 -82t16.5 -101q0 -25 -4 -53t-19.5 -58t-44 -57.5t-77.5 -50.5v-2q55 -14 91 -42.5t56.5 -65.5t27.5 -75t7 -71q0 -121 -76.5 -194.5t-218.5 -73.5h-436q-16 0 -20.5 5t-4.5 11zM172 59h352q72 0 122 16.5t81 46.5 t45 67.5t14 80.5q0 41 -13 80t-44 69t-83 48t-128 18h-346v-426zM172 545h307q131 0 201 54t70 142q0 86 -55.5 142.5t-186.5 56.5h-336v-395z" />
<glyph unicode="&#x433;" horiz-adv-x="774" d="M123 14v971q0 14 10 14h606q14 0 15 -12v-33q0 -6 -2 -10t-13 -4h-549v-926q0 -14 -14 -14h-41q-10 0 -11 2t-1 12z" />
<glyph unicode="&#x434;" horiz-adv-x="1079" d="M20 23q0 18 5.5 24t17.5 10l49 6q80 72 109.5 157t44.5 200l61 522q4 29 16.5 43t61.5 14h514q18 0 19 -18v-920l49 -4q23 -2 22 -30l-12 -252q-2 -23 -7 -28t-16 -5h-18q-10 0 -14 4t-7 23l-10 231h-803l-12 -231q-2 -27 -20 -27h-21q-10 0 -14 5t-6 22zM176 59h672v881 h-475l-60 -498q-16 -131 -43.5 -225t-93.5 -158z" />
<glyph unicode="&#x435;" horiz-adv-x="942" d="M92 506q0 92 13.5 183t55.5 165t117.5 119t200.5 45q123 0 200 -37t119 -99.5t57 -143.5t15 -167q0 -45 -13 -65.5t-52 -20.5h-635q0 -86 10 -164.5t42 -139t93.5 -95.5t163.5 -35q82 0 157 7.5t157 15.5q16 0 18 -11l2 -18q4 -14 -8 -16q-31 -12 -74 -20.5t-89 -14.5 t-91 -8t-78 -2q-129 0 -204.5 43t-114.5 114.5t-50.5 167t-11.5 197.5zM168 545h627q-2 78 -11.5 150.5t-41 130t-94.5 91t-169 33.5q-94 0 -153.5 -30.5t-93 -85t-48 -128t-16.5 -161.5z" />
<glyph unicode="&#x436;" horiz-adv-x="1363" d="M53 23l97 288q16 51 33.5 87t38 60.5t47 40t63.5 21.5q-59 14 -95 62.5t-65 132.5l-88 262q-8 20 14 20h29q16 0 23 -20l88 -258q18 -55 46.5 -90t59.5 -53.5t62.5 -24.5t60.5 -6h180v440q0 14 12 14h43q14 0 15 -14v-440h180q27 0 59.5 6t63.5 24.5t59.5 53.5t46.5 90 l88 258q6 20 23 20h29q23 0 14 -20l-88 -262q-29 -84 -64.5 -132t-95.5 -63q74 -14 111 -61t71 -148l97 -288q6 -23 -13 -23h-34q-8 0 -13.5 2t-9.5 14l-96 289q-18 55 -41 90t-50.5 54.5t-64.5 25.5t-82 6h-190v-465q0 -16 -15 -16h-43q-12 0 -12 16v465h-190q-47 0 -83 -6 t-63.5 -25.5t-50 -54.5t-41.5 -90l-96 -289q-4 -12 -9 -14t-14 -2h-34q-18 0 -13 23z" />
<glyph unicode="&#x437;" horiz-adv-x="823" d="M33 45l4 21q4 14 20 12q55 -8 96.5 -14.5t72 -9.5t55 -4t47.5 -1q160 0 249 56.5t89 173.5q0 66 -26 108.5t-68 67t-96 34t-111 9.5h-43q-16 0 -17 14v37q0 12 17 12h34q57 0 110.5 13.5t92.5 40t62.5 62.5t23.5 83q0 57 -21.5 95t-58.5 60.5t-88 30.5t-110 8 q-23 0 -55.5 -2t-68.5 -5t-71 -7t-63 -8q-23 -4 -25 10l-2 14q-4 18 12 25q78 27 155 33t126 6q106 0 173.5 -21.5t106.5 -56.5t53.5 -82t14.5 -96q0 -37 -12.5 -74t-38 -68.5t-64.5 -55t-92 -31.5v-5q39 -2 79 -18t72.5 -47t53 -76t20.5 -100q0 -154 -106.5 -229.5 t-304.5 -75.5q-59 0 -137 8t-150 33q-14 6 -10 20z" />
<glyph unicode="&#x438;" horiz-adv-x="970" d="M102 14v971q0 14 17 14h43q10 0 10 -14v-874l297 424l313 446q18 18 27 18h45q14 0 14 -14v-971q0 -14 -16 -14h-43q-10 0 -10 14v883l-262 -375l-361 -514q-2 -2 -6 -5t-10 -3h-43q-14 0 -15 14z" />
<glyph unicode="&#x439;" horiz-adv-x="970" d="M102 14v971q0 14 17 14h43q10 0 10 -14v-874l297 424l313 446q18 18 27 18h45q14 0 14 -14v-971q0 -14 -16 -14h-43q-10 0 -10 14v883l-262 -375l-361 -514q-2 -2 -6 -5t-10 -3h-43q-14 0 -15 14zM238.5 1298.5q-5.5 12.5 5.5 20.5l20 14q16 12 27 -6q49 -74 95 -101.5 t112 -27.5q53 0 101 29.5t99 101.5q10 14 27 6l18 -12q10 -8 5 -18.5t-11 -24.5q-43 -80 -107 -116t-134 -36q-72 0 -140.5 35t-107.5 113q-4 10 -9.5 22.5z" />
<glyph unicode="&#x43a;" horiz-adv-x="845" d="M102 16v969q0 14 13 14h43q14 0 14 -14v-440h217q27 0 59.5 6t63.5 24.5t59.5 53.5t46.5 90l89 258q6 20 22 20h29q23 0 14 -20l-88 -262q-29 -84 -64.5 -132t-95.5 -63q74 -14 111 -61t72 -148l96 -288q6 -23 -12 -23h-35q-8 0 -13.5 2t-9.5 14l-96 289q-18 55 -41 90 t-50.5 54.5t-64.5 25.5t-82 6h-227v-465q0 -16 -14 -16h-43q-12 0 -13 16z" />
<glyph unicode="&#x43b;" horiz-adv-x="1032" d="M10 0v29q0 12 6.5 14t16.5 2q70 4 111.5 24.5t66.5 61.5t36 102.5t17 147.5l41 537q4 47 21.5 64t64.5 17h506q12 0 12 -12v-975q0 -12 -12 -12h-43q-16 0 -16 12v928h-461l-45 -594q-6 -68 -16.5 -133.5t-42 -117.5t-90 -82.5t-158.5 -26.5q-14 0 -15 14z" />
<glyph unicode="&#x43c;" horiz-adv-x="1146" d="M102 14v971q0 14 15 14h47q14 0 20 -10l383 -743l391 739q6 14 27 14h41q18 0 18 -16v-969q0 -14 -10 -14h-43q-16 0 -16 14v856l-371 -690q-2 -4 -6 -8t-10 -4h-39q-18 0 -25 12q-49 86 -92 171t-84 171t-84 173t-92 173v-854q0 -14 -14 -14h-39q-16 0 -17 14z" />
<glyph unicode="&#x43d;" horiz-adv-x="960" d="M104 12v975q0 12 11 12h45q14 0 14 -12v-432h610v432q0 12 17 12h45q12 0 12 -12v-975q0 -12 -12 -12h-45q-16 0 -17 12v488h-610v-488q0 -12 -14 -12h-45q-10 0 -11 12z" />
<glyph unicode="&#x43e;" horiz-adv-x="976" d="M92 518q0 76 12.5 164t52.5 163t116.5 124t207.5 49q133 0 213 -43t122 -113.5t55.5 -160t13.5 -183.5q0 -92 -10.5 -187t-50.5 -172t-121 -126t-222 -49q-137 0 -215 48t-116.5 123.5t-48 171t-9.5 191.5zM168 502q0 -96 11 -179t45 -144.5t95.5 -96.5t161.5 -35 q102 0 167 34t100.5 94.5t48 143t12.5 183.5q0 100 -12.5 183t-47 141.5t-99.5 91t-169 32.5q-100 0 -161.5 -34.5t-95.5 -95t-45 -142.5t-11 -176z" />
<glyph unicode="&#x43f;" horiz-adv-x="960" d="M104 12v975q0 12 17 12h725q10 0 10 -10l2 -977q0 -12 -12 -12h-51q-10 0 -11 12v928h-610v-928q0 -12 -14 -12h-45q-10 0 -11 12z" />
<glyph unicode="&#x440;" horiz-adv-x="980" d="M127 -348v1335q0 12 6 12h53q10 0 11 -12v-108q35 20 81 44.5t99 45t111.5 35t117.5 14.5q84 0 141.5 -30t91 -91t48 -156.5t14.5 -224.5q0 -133 -16.5 -233.5t-58.5 -167t-112.5 -100t-181.5 -33.5q-59 0 -146 11t-185 52l-6 -2v-391q0 -12 -11 -12h-51q-6 0 -6 12z M197 104q102 -31 186 -45t162 -14q160 0 221 112.5t61 364.5q0 123 -14 206t-44 133t-74 70.5t-105 20.5q-45 0 -102.5 -16t-113 -37.5t-103.5 -46.5t-74 -39v-709z" />
<glyph unicode="&#x441;" horiz-adv-x="802" d="M92 506q0 104 12.5 197.5t51.5 163t112.5 110.5t196.5 41q27 0 65.5 -2t79.5 -7t81 -13.5t71 -18.5q12 -4 10 -16l-4 -21q-4 -12 -18 -10q-82 10 -148.5 16t-130.5 6q-86 0 -144.5 -23.5t-94 -76.5t-51 -138t-15.5 -206q0 -127 14.5 -214t49 -141.5t93 -79t148.5 -24.5 q63 0 144 6t137 15q10 2 12 -1t4 -10l4 -20q2 -12 -10 -16q-31 -10 -72 -18.5t-85 -13.5t-84 -7t-66 -2q-121 0 -191.5 37.5t-109.5 107.5t-50.5 166t-11.5 213z" />
<glyph unicode="&#x442;" horiz-adv-x="815" d="M27 952v35q0 12 16 12h737q10 0 11 -12v-35q0 -12 -11 -12h-338v-928q0 -12 -14 -12h-39q-16 0 -16 12v928h-330q-16 0 -16 12z" />
<glyph unicode="&#x443;" horiz-adv-x="901" d="M53 987q-4 10 8 10h50q16 0 20 -14l307 -903h4l330 905q4 14 21 14h43q10 0 11 -3t-1 -11l-486 -1335q-2 -4 -4 -7t-12 -3h-41q-10 0 -12 1t0 11l112 325z" />
<glyph unicode="&#x444;" horiz-adv-x="1181" d="M92 524q0 96 22.5 184.5t77 156t142.5 108.5t221 45v328q0 12 12 12h49q8 0 9 -12v-328q133 -4 222 -44t143 -107.5t77 -155.5t23 -187q0 -104 -20.5 -198.5t-74 -168t-143.5 -118.5t-227 -49v-338q0 -12 -9 -12h-49q-12 0 -12 12v338q-139 0 -228 45t-141.5 118.5 t-73 170t-20.5 200.5zM166 508q0 -225 92 -335t299 -120v897q-209 -4 -300 -117.5t-91 -324.5zM625 53q203 8 297 119t94 336q0 211 -91 324.5t-300 117.5v-897z" />
<glyph unicode="&#x445;" horiz-adv-x="829" d="M45 14l330 494l-309 473q-4 4 -3.5 10t11.5 6h47q12 0 20 -12l277 -424l276 424q8 12 21 12h47q10 0 10 -6t-4 -10l-307 -473l332 -492q12 -16 -9 -16h-47q-16 0 -24 10l-295 445l-291 -445q-8 -10 -25 -10h-51q-14 0 -6 14z" />
<glyph unicode="&#x446;" horiz-adv-x="989" d="M102 12v975q0 12 15 12h41q12 0 12 -12v-928h625v928q0 12 16 12h43q10 0 10 -12v-921l62 -3q23 -4 22 -30l-12 -252q-2 -23 -7 -28t-16 -5h-18q-10 0 -14 6t-7 25l-10 221h-747q-14 0 -15 12z" />
<glyph unicode="&#x447;" horiz-adv-x="909" d="M61 772v209q0 12 11 12h57q6 0 6 -12v-217q0 -63 4 -118.5t25.5 -95.5t65.5 -63.5t122 -23.5q53 0 110.5 14.5t110 34.5t95.5 43t69 37v389q0 12 11 12h53q6 0 6 -12v-969q0 -12 -6 -12h-53q-10 0 -11 12v512q-31 -18 -76 -40.5t-98 -41t-110.5 -32t-114.5 -13.5 q-102 0 -158.5 31t-82 82t-31 119.5t-5.5 142.5z" />
<glyph unicode="&#x448;" horiz-adv-x="1445" d="M102 12v975q0 12 15 12h45q12 0 12 -12v-928h512v928q0 12 14 12h43q10 0 11.5 -2t1.5 -10v-928h518v928q0 12 16 12h43q10 0 10 -12v-975q0 -12 -10 -12h-1216q-14 0 -15 12z" />
<glyph unicode="&#x449;" horiz-adv-x="1470" d="M102 12v975q0 12 15 12h45q12 0 12 -12v-928h512v928q0 12 14 12h43q10 0 11.5 -2t1.5 -10v-928h520v928q0 12 16 12h43q10 0 11 -12v-921l61 -3q23 -4 23 -30l-13 -252q-2 -23 -7 -28t-15 -5h-19q-10 0 -14 6t-6 25l-10 221h-1229q-14 0 -15 12z" />
<glyph unicode="&#x44a;" horiz-adv-x="1173" d="M8 952v33q0 14 10 14h412q16 0 16 -14v-410h367q88 0 147.5 -25.5t95.5 -67.5t51 -94t15 -105q0 -137 -89 -210t-236 -73h-404q-16 0 -16 14v926h-357q-12 0 -12 12zM446 59h334q119 0 196 53.5t77 168.5q0 80 -29 126t-66.5 69.5t-77.5 29.5t-65 6h-369v-453z" />
<glyph unicode="&#x44b;" horiz-adv-x="1136" d="M102 14v971q0 14 17 14h37q16 0 16 -14v-410h367q88 0 147 -25.5t95 -67.5t51.5 -94t15.5 -105q0 -137 -89 -210t-237 -73h-403q-16 0 -17 14zM172 59h334q119 0 195.5 53.5t76.5 168.5q0 80 -28.5 126t-66.5 69.5t-78 29.5t-64 6h-369v-453zM965 12v973q0 12 12 12h49 q8 0 8 -12v-973q0 -12 -10 -12h-47q-12 0 -12 12z" />
<glyph unicode="&#x44c;" horiz-adv-x="888" d="M102 14v971q0 14 17 14h37q16 0 16 -14v-410h367q88 0 147 -25.5t95 -67.5t51.5 -94t15.5 -105q0 -137 -89 -210t-237 -73h-403q-16 0 -17 14zM172 59h334q119 0 195.5 53.5t76.5 168.5q0 80 -28.5 126t-66.5 69.5t-78 29.5t-64 6h-369v-453z" />
<glyph unicode="&#x44d;" horiz-adv-x="819" d="M43 39l4 20q2 4 3 8.5t11 2.5q59 -8 137 -15.5t142 -7.5q166 0 239.5 102.5t73.5 335.5h-463q-14 0 -14 9v45q0 12 14 12h463q0 205 -65.5 303t-237.5 98q-63 0 -125.5 -7t-122.5 -15q-10 -2 -11 2t-3 8l-4 21q-2 12 10 16q59 23 134 32t128 9q123 0 197 -38 t111.5 -105.5t50 -161.5t12.5 -207q0 -109 -13.5 -204t-54.5 -165.5t-115.5 -112.5t-197.5 -42q-27 0 -64.5 2t-78.5 7t-80 13t-70 19q-12 4 -10 16z" />
<glyph unicode="&#x44e;" horiz-adv-x="1177" d="M102 12v975q0 12 11 12h45q14 0 14 -12v-432h162q2 74 13 156t49 150.5t110 112.5t194 44q133 0 210 -43t116 -113.5t49 -160t10 -183.5q0 -92 -7 -187t-44 -172t-115 -126t-219 -49q-133 0 -207.5 45t-109.5 118.5t-42 166t-7 186.5h-162v-488q0 -12 -14 -12h-45 q-10 0 -11 12zM410 502q0 -96 8 -179t37.5 -144.5t87 -96.5t157.5 -35q102 0 164 34t93.5 94.5t42 143t10.5 183.5q0 100 -9.5 183t-41 141.5t-93.5 91t-166 32.5q-100 0 -157.5 -34.5t-87 -95t-37.5 -142.5t-8 -176z" />
<glyph unicode="&#x44f;" horiz-adv-x="946" d="M63 23l84 258q25 78 59 123t83 65q-57 12 -94 37.5t-58.5 59.5t-31 75t-9.5 82q0 72 25.5 124t71 86t105.5 50t130 16h397q18 0 19 -14v-969q0 -16 -19 -16h-32q-16 0 -17 16v435h-301q-47 0 -86 -6.5t-70.5 -26t-57 -54t-44.5 -90.5l-84 -258q-4 -12 -9 -14t-13 -2h-35 q-18 0 -13 23zM170 719q0 -72 27.5 -113t68.5 -61.5t87 -25.5t83 -5h340v422h-327q-59 0 -109.5 -11.5t-88.5 -37t-59.5 -66.5t-21.5 -102z" />
<glyph unicode="&#x451;" horiz-adv-x="942" d="M92 506q0 92 13.5 183t55.5 165t117.5 119t200.5 45q123 0 200 -37t119 -99.5t57 -143.5t15 -167q0 -45 -13 -65.5t-52 -20.5h-635q0 -86 10 -164.5t42 -139t93.5 -95.5t163.5 -35q82 0 157 7.5t157 15.5q16 0 18 -11l2 -18q4 -14 -8 -16q-31 -12 -74 -20.5t-89 -14.5 t-91 -8t-78 -2q-129 0 -204.5 43t-114.5 114.5t-50.5 167t-11.5 197.5zM168 545h627q-2 78 -11.5 150.5t-41 130t-94.5 91t-169 33.5q-94 0 -153.5 -30.5t-93 -85t-48 -128t-16.5 -161.5zM268 1260q0 23 9.5 36t37.5 13q31 0 40.5 -13t9.5 -36t-9.5 -38.5t-40.5 -15.5 q-33 0 -40 15.5t-7 38.5zM627 1260q0 23 9 36t38 13q31 0 40 -13t9 -36t-9 -38.5t-40 -15.5q-33 0 -40 15.5t-7 38.5z" />
<glyph unicode="&#x452;" horiz-adv-x="1069" d="M43 1210v35q0 12 14 12h146v168q0 12 6 13h53q10 0 10 -13v-168h504q10 0 10 -10v-37q0 -10 -10 -10h-504v-336q109 49 198 70.5t167 21.5q180 0 270 -111.5t90 -309.5q0 -90 -19.5 -188.5t-68.5 -192t-130 -175t-204 -139.5q-4 -2 -11 -2t-11 10l-8 19q-4 10 0 15t10 9 q180 106 274.5 260t94.5 386q0 190 -82 272t-211 82q-90 0 -181.5 -25.5t-177.5 -60.5v-793q0 -12 -10 -12h-53q-6 0 -6 12v1188h-148q-12 0 -12 10z" />
<glyph unicode="&#x453;" horiz-adv-x="753" d="M102 14v971q0 14 11 14h606q14 0 14 -12v-33q0 -6 -2 -10t-12 -4h-549v-926q0 -14 -14 -14h-41q-10 0 -11.5 2t-1.5 12zM309 1165l137 265q6 12 19 6l57 -27q10 -4 4 -14l-172 -254q-6 -10 -14 -4l-25 12q-10 6 -6 16z" />
<glyph unicode="&#x454;" horiz-adv-x="802" d="M92 506q0 104 12.5 197.5t51.5 163t112.5 110.5t196.5 41q27 0 65.5 -2t79.5 -7t81 -13.5t71 -18.5q10 -4 10 -16l-4 -21q0 -10 -14 -10q-29 2 -64 6t-73.5 8t-76.5 6t-69 2q-84 0 -141.5 -22.5t-93 -72.5t-52 -129t-18.5 -191h463q14 0 14 -13v-45q0 -8 -14 -8h-463 q2 -117 19.5 -196.5t54 -130t94 -73t137.5 -22.5q31 0 69 2t75.5 5t72.5 6.5t64 7.5q16 0 16 -11l4 -20q0 -12 -10 -16q-31 -10 -72 -18.5t-85 -13.5t-84 -7t-66 -2q-121 0 -191.5 37.5t-109.5 107.5t-50.5 166t-11.5 213z" />
<glyph unicode="&#x455;" horiz-adv-x="827" d="M84 39l4 20q0 10 16 11q27 -4 67 -7.5t82 -7.5t81 -6t63 -2q57 0 107.5 10.5t87.5 33t57.5 61.5t20.5 98q0 61 -14.5 101t-44 65.5t-78 40t-115.5 26.5q-76 12 -137.5 26.5t-104.5 42.5t-66.5 73t-23.5 118q0 133 79 204t249 71q27 0 63.5 -2t76.5 -7t78 -13.5t68 -18.5 q10 -4 11 -16l-4 -21q0 -10 -15 -10q-29 2 -63.5 6t-72.5 8t-76 6t-68 2q-129 0 -190.5 -47t-61.5 -155q0 -57 17.5 -92t50 -55.5t80.5 -31t110 -20.5q74 -12 133 -27.5t102 -46.5t66.5 -80t23.5 -129q0 -158 -94 -220t-254 -62q-29 0 -67.5 2t-80.5 6t-82 11t-71 18 q-10 4 -10 16z" />
<glyph unicode="&#x456;" horiz-adv-x="403" d="M152 1266q0 23 9 37t40 14q33 0 42 -14t9 -37t-9.5 -39.5t-41.5 -16.5q-33 0 -41 16.5t-8 39.5zM166 12v973q0 12 12 12h49q8 0 9 -12v-973q0 -12 -11 -12h-47q-12 0 -12 12z" />
<glyph unicode="&#x457;" horiz-adv-x="403" d="M-27 1260q0 23 9.5 36t37.5 13q31 0 40.5 -13t9.5 -36t-9.5 -38.5t-40.5 -15.5q-33 0 -40 15.5t-7 38.5zM166 12v973q0 12 12 12h49q8 0 9 -12v-973q0 -12 -11 -12h-47q-12 0 -12 12zM332 1260q0 23 9 36t38 13q31 0 40 -13t9 -36t-9 -38.5t-40 -15.5q-33 0 -40 15.5 t-7 38.5z" />
<glyph unicode="&#x458;" horiz-adv-x="425" d="M-39 -369q0 18 21 19q76 2 117.5 18.5t62 41t24.5 55t4 63.5v1159q0 12 11 12h49q12 0 12 -12v-1180q0 -35 -7 -74.5t-34.5 -72.5t-84 -53.5t-156.5 -14.5q-2 0 -10.5 3.5t-8.5 15.5v20zM176 1266q0 23 9.5 37t39.5 14q33 0 42 -14t9 -37t-9 -39.5t-42 -16.5t-41 16.5 t-8 39.5z" />
<glyph unicode="&#x459;" horiz-adv-x="1552" d="M10 0v29q0 12 6.5 14t16.5 2q70 4 111.5 24.5t66.5 61.5t36 102.5t17 147.5l41 537q4 47 21.5 64t64.5 17h418q16 0 16 -14v-410h367q88 0 147.5 -25.5t95 -67.5t51 -94t15.5 -105q0 -137 -89 -210t-236 -73h-404q-16 0 -16 12v928h-379l-45 -594q-6 -68 -16.5 -133.5 t-42 -117.5t-90 -82.5t-158.5 -26.5q-14 0 -15 14zM825 59h334q119 0 196 53.5t77 168.5q0 80 -29 126t-67 69.5t-77.5 29.5t-64.5 6h-369v-453z" />
<glyph unicode="&#x45a;" horiz-adv-x="1423" d="M102 12v975q0 12 11 12h47q10 0 11 -2t1 -10v-412h465v410q0 14 16 14h37q16 0 17 -14v-410h366q88 0 147.5 -25.5t95.5 -67.5t51 -94t15 -105q0 -137 -89 -210t-236 -73h-404q-16 0 -16 14v498h-465v-500q0 -8 -1 -10t-11 -2h-47q-10 0 -11 12zM707 59h333 q119 0 196 53.5t77 168.5q0 80 -29 126t-66.5 69.5t-77.5 29.5t-65 6h-368v-453z" />
<glyph unicode="&#x45b;" horiz-adv-x="1032" d="M43 1210v35q0 12 14 12h129v168q0 12 7 13h53q10 0 10 -13v-168h528q10 0 11 -10v-37q0 -10 -11 -10h-528v-326q31 18 77 43t99 46.5t113 37t119 15.5q106 0 162.5 -30t81 -81t27.5 -118.5t3 -141.5l2 -633q0 -12 -10 -12h-58q-6 0 -6 12v641q0 63 -4 118.5t-25.5 95.5 t-65.5 63.5t-122 23.5q-45 0 -102.5 -16t-112.5 -37.5t-103 -45.5t-75 -38v-805q0 -12 -10 -12h-53q-6 0 -7 12v1188h-131q-12 0 -12 10z" />
<glyph unicode="&#x45c;" horiz-adv-x="825" d="M102 16v969q0 14 13 14h43q14 0 14 -14v-440h217q27 0 59.5 6t63.5 24.5t59.5 53.5t46.5 90l89 258q6 20 22 20h29q23 0 14 -20l-88 -262q-29 -84 -64.5 -132t-95.5 -63q74 -14 111 -61t72 -148l96 -288q6 -23 -12 -23h-35q-8 0 -13.5 2t-9.5 14l-96 289q-18 55 -41 90 t-50.5 54.5t-64.5 25.5t-82 6h-227v-465q0 -16 -14 -16h-43q-12 0 -13 16zM350 1165l137 265q6 12 19 6l57 -27q10 -4 4 -14l-172 -254q-6 -10 -14 -4l-25 12q-10 6 -6 16z" />
<glyph unicode="&#x45e;" horiz-adv-x="901" d="M53 987q-4 10 8 10h50q16 0 20 -14l307 -903h4l330 905q4 14 21 14h43q10 0 11 -3t-1 -11l-486 -1335q-2 -4 -4 -7t-12 -3h-41q-10 0 -12 1t0 11l112 325zM187.5 1347.5q-5.5 12.5 5.5 20.5l20 14q16 12 27 -6q49 -74 95 -101.5t111 -27.5q53 0 101.5 30t99.5 101 q10 14 27 6l18 -12q10 -8 5 -18.5t-11 -24.5q-43 -80 -107.5 -115.5t-134.5 -35.5q-72 0 -140 34.5t-107 112.5q-4 10 -9.5 22.5z" />
<glyph unicode="&#x45f;" horiz-adv-x="960" d="M104 12v975q0 12 15 12h43q12 0 12 -12v-930h610v930q0 12 13 12h47q14 0 14 -12v-975q0 -12 -14 -12h-324l-12 -242q-2 -23 -6 -26.5t-10 -3.5h-25q-10 0 -14 5t-7 25l-12 242h-315q-14 0 -15 12z" />
<glyph unicode="&#x490;" horiz-adv-x="917" d="M147 14v1329q0 14 11 15h633l18 239q0 23 5 30t13 7h21q6 0 11 -5t5 -32v-297q0 -12 -10 -12h-631v-1274q0 -14 -10 -14h-53q-12 0 -13 14z" />
<glyph unicode="&#x491;" horiz-adv-x="802" d="M127 14v971q0 14 10 14h545l20 222q0 23 4.5 29.5t12.5 6.5h26q10 0 11.5 -7t1.5 -29v-267q0 -6 -2 -10t-13 -4h-546v-926q0 -14 -15 -14h-43q-10 0 -11 2t-1 12z" />
<glyph unicode="&#x4d9;" horiz-adv-x="962" d="M90 432q0 45 13.5 65.5t52.5 20.5h637q0 86 -9.5 165t-40 139.5t-91 95t-163.5 34.5q-82 0 -150.5 -7t-150.5 -15q-16 0 -18 10l-2 18q-4 14 8 17q31 12 72 20.5t85 14.5t86 8t77 2q129 0 203.5 -43t112.5 -116t48 -167t10 -196q0 -92 -15 -183.5t-59 -165t-122 -118.5 t-203 -45q-127 0 -202.5 36.5t-115.5 99t-51.5 143.5t-11.5 167zM166 459q-2 -78 5 -150.5t38 -130t92 -91.5t170 -34q94 0 154.5 31t97.5 85t52.5 128t19.5 162h-629z" />
<glyph unicode="&#x2000;" horiz-adv-x="836" />
<glyph unicode="&#x2001;" horiz-adv-x="1673" />
<glyph unicode="&#x2002;" horiz-adv-x="836" />
<glyph unicode="&#x2003;" horiz-adv-x="1673" />
<glyph unicode="&#x2004;" horiz-adv-x="557" />
<glyph unicode="&#x2005;" horiz-adv-x="418" />
<glyph unicode="&#x2006;" horiz-adv-x="278" />
<glyph unicode="&#x2007;" horiz-adv-x="278" />
<glyph unicode="&#x2008;" horiz-adv-x="209" />
<glyph unicode="&#x2009;" horiz-adv-x="334" />
<glyph unicode="&#x200a;" horiz-adv-x="92" />
<glyph unicode="&#x2010;" horiz-adv-x="704" d="M80 633v55q0 12 10 12h543q10 0 10 -12v-57q0 -8 -10 -8h-543q-10 0 -10 10z" />
<glyph unicode="&#x2011;" horiz-adv-x="704" d="M80 633v55q0 12 10 12h543q10 0 10 -12v-57q0 -8 -10 -8h-543q-10 0 -10 10z" />
<glyph unicode="&#x2012;" horiz-adv-x="704" d="M80 633v55q0 12 10 12h543q10 0 10 -12v-57q0 -8 -10 -8h-543q-10 0 -10 10z" />
<glyph unicode="&#x2013;" horiz-adv-x="1024" d="M55 500v41q0 12 13 12h884q10 0 11 -12v-43q0 -8 -11 -9h-884q-12 0 -13 11z" />
<glyph unicode="&#x2014;" horiz-adv-x="2048" d="M68 500v41q0 12 12 12h1884q12 0 12 -12v-43q0 -8 -12 -9h-1884q-12 0 -12 11z" />
<glyph unicode="&#x2018;" horiz-adv-x="356" d="M104 1090q0 78 35 147.5t84 103.5q10 6 15 2l16 -14q8 -6 0 -14q-55 -55 -55 -135q0 -31 11 -65t30 -58q8 -14 -2 -23l-72 -47q-6 -4 -11 -4t-12 8q-20 20 -29.5 51t-9.5 48z" />
<glyph unicode="&#x2019;" horiz-adv-x="356" d="M104 1001q-8 7 2 17q55 59 56 133q0 33 -12.5 65.5t-30.5 59.5q-8 12 4 20l70 47q6 4 11 5.5t11 -7.5q23 -23 31 -52t8 -46q0 -78 -35 -147.5t-84 -106.5q-8 -8 -14 -2z" />
<glyph unicode="&#x201a;" horiz-adv-x="346" d="M102 -233q-8 8 2 14q55 55 56 135q0 33 -11.5 65.5t-29.5 59.5q-12 12 2 20l72 48q10 8 22 -3q20 -23 28.5 -52t8.5 -46q0 -78 -35 -147.5t-84 -106.5q-8 -8 -14 -2z" />
<glyph unicode="&#x201c;" horiz-adv-x="491" d="M82 1090q0 78 35 147.5t84 103.5q10 6 14 2l16 -14q8 -6 0 -14q-55 -55 -55 -135q0 -31 11.5 -65t29.5 -58q8 -14 -2 -23l-72 -47q-6 -4 -11 -4t-11 8q-20 20 -29.5 51t-9.5 48zM276 1090q0 76 36 146.5t83 104.5q10 6 17 2l14 -14q8 -6 0 -14q-55 -55 -55 -135 q0 -31 11 -65t30 -58q8 -14 -2 -23l-72 -47q-10 -8 -23 4q-20 20 -29.5 51t-9.5 48z" />
<glyph unicode="&#x201d;" horiz-adv-x="491" d="M82 1001q-8 7 2 17q55 59 55 133q0 33 -12 65.5t-31 59.5q-8 12 4 20l70 47q6 4 11 5.5t12 -7.5q23 -23 30.5 -52t7.5 -46q0 -78 -34.5 -147.5t-83.5 -106.5q-8 -8 -15 -2zM276 1001q-5 9 3 17q55 55 55 133q0 33 -12.5 65.5t-28.5 59.5q-12 12 2 20l70 47q6 4 11 5.5 t11 -7.5q23 -23 31 -52t8 -46q0 -78 -35 -147.5t-84 -106.5q-8 -8 -14 -2z" />
<glyph unicode="&#x201e;" horiz-adv-x="540" d="M102 -215q-8 6 2 16q55 59 56 133q0 33 -12.5 66t-30.5 59q-8 12 4 21l69 47q6 4 11.5 5t11.5 -7q23 -23 31 -57.5t8 -51.5q0 -78 -35 -142t-84 -101q-8 -8 -14 -2zM297 -215q-6 8 2 16q55 55 55 133q0 33 -12 66t-29 59q-12 12 2 21l70 47q6 4 11 5t12 -7 q23 -23 30.5 -56.5t7.5 -50.5q0 -78 -34.5 -143t-83.5 -102q-8 -8 -15 -2z" />
<glyph unicode="&#x2026;" horiz-adv-x="1134" d="M96 47q0 29 12.5 46.5t49.5 17.5q39 0 50 -17.5t11 -46.5t-11 -47t-50 -18q-41 0 -51.5 19t-10.5 46zM498 47q0 29 11 46.5t48 17.5q39 0 50 -17.5t11 -46.5t-10 -47t-51 -18t-50 19t-9 46zM895 47q0 29 11.5 46.5t47.5 17.5q39 0 50.5 -17.5t11.5 -46.5t-10.5 -47 t-51.5 -18t-50 19t-9 46z" />
<glyph unicode="&#x202f;" horiz-adv-x="334" />
<glyph unicode="&#x2039;" horiz-adv-x="710" d="M209 336q-12 12 2 33l205 260q6 8 11 12t22 4h40q16 0 5 -16l-222 -277l226 -276q4 -4 3 -9.5t-7 -5.5h-41q-18 0 -24.5 5.5t-12.5 13.5z" />
<glyph unicode="&#x203a;" horiz-adv-x="710" d="M200 66.5q-1 5.5 3 9.5l225 276l-221 277q-12 16 4 16h41q16 0 21.5 -4t11.5 -12l204 -260q14 -20 3 -33l-207 -256q-6 -8 -12.5 -13.5t-24.5 -5.5h-41q-6 0 -7 5.5z" />
<glyph unicode="&#x205f;" horiz-adv-x="418" />
<glyph unicode="&#x20ac;" d="M49 549v43q0 12 10 12h830q12 0 12 -12v-45q0 -8 -12 -8h-633q8 -98 31.5 -186.5t73 -154t129 -103.5t196.5 -38q35 0 79 1t88 4.5t86 5.5t73 6q16 0 18 -13l4 -22q0 -12 -12 -19q-33 -12 -83 -19t-101.5 -11t-96.5 -6t-67 -2q-135 0 -226.5 42t-148.5 116.5t-85 177 t-36 221.5h-119q-10 0 -10 10zM49 752v45q0 12 10 12h119q8 119 36 222.5t85 179t148.5 118.5t226.5 43q33 0 80 -2t95 -6t94 -12.5t79 -20.5q14 -4 10 -18l-2 -23q-2 -6 -5 -9t-13 -1q-61 4 -150.5 11t-171.5 7q-123 0 -203.5 -40.5t-130 -108.5t-72 -157t-28.5 -183h633 q12 0 12 -12v-47q0 -8 -12 -9h-830q-10 0 -10 11z" />
<glyph unicode="&#x2122;" horiz-adv-x="1261" d="M55 1307v43q0 8 13 8h424q12 0 12 -10v-41q0 -12 -12 -13h-179v-551q0 -10 -10 -10h-43h-9t-3 10v551h-180q-12 0 -13 13zM567 743v605q0 10 13 10h41q12 0 13 -3t5 -9l231 -467l236 469q6 10 16 10h37q12 0 12 -12v-603q0 -10 -10 -10h-43q-12 0 -12 10v465l-2 2 l-203 -393q-4 -12 -16 -12h-33q-10 0 -12 2t-6 12l-197 389l-4 -2v-463q0 -10 -8 -10h-43q-14 0 -15 10z" />
<glyph unicode="&#x25fc;" horiz-adv-x="993" d="M0 0v993h993v-993h-993z" />
</font>
</defs>
</svg>
