<?xml version="1.0" standalone="no"?>
<!DOCTYPE svg PUBLIC "-//W3C//DTD SVG 1.1//EN" "http://www.w3.org/Graphics/SVG/1.1/DTD/svg11.dtd" >
<svg xmlns="http://www.w3.org/2000/svg">
<metadata></metadata>
<defs>
<font id="ds_crystalregular" horiz-adv-x="927" >
<font-face units-per-em="2048" ascent="1638" descent="-410" />
<missing-glyph horiz-adv-x="919" />
<glyph horiz-adv-x="0" />
<glyph unicode="&#xd;" horiz-adv-x="1024" />
<glyph unicode=" "  horiz-adv-x="919" />
<glyph unicode="&#x09;" horiz-adv-x="919" />
<glyph unicode="&#xa0;" horiz-adv-x="919" />
<glyph unicode="!" horiz-adv-x="313" d="M41 0h231v365h-231v-365zM41 598l231 -145v1005l-231 -233v-627z" />
<glyph unicode="&#x22;" horiz-adv-x="722" d="M41 1028l231 -72v502l-231 -117v-313zM451 1028l231 -72v502l-231 -117v-313z" />
<glyph unicode="#" horiz-adv-x="1214" d="M41 434h223l-74 -475h211l70 475h205l-68 -475h209l66 475h237v207h-207l31 207h230v209h-201l63 442h-205l-65 -442h-201l66 442h-207l-66 -442h-260v-209h228l-31 -207h-254v-207zM504 641l31 207h202l-30 -207h-203z" />
<glyph unicode="$" d="M41 0h610l105 100l-133 133h-320zM41 743l231 146v305l-131 133l-100 -102v-482zM98 729l205 -100h320l204 100l-204 131h-320zM172 1358l131 -133h320l264 233h-615zM324 -61v-172l100 -103l131 133v142h-231zM324 1520h231v88l-131 133l-100 -103v-118zM651 264 l133 -133l103 102v482l-236 -117v-334z" />
<glyph unicode="&#x26;" horiz-adv-x="1218" d="M41 233l100 -102l131 133v334l-231 117v-482zM41 743l231 146v305l-131 133l-100 -102v-482zM172 100l100 -100h379l105 100l-133 133h-320zM172 1358l131 -133h320l133 133l-105 100h-379zM244 733l200 -104h181l112 114l-112 117h-179zM651 264l133 -129l97 101v362 l-113 117l-117 -115v-336zM651 897l117 -127l115 125v154l-99 135l-133 -135v-152zM799 743l114 -114h74l191 102l-189 129h-76z" />
<glyph unicode="'" horiz-adv-x="313" d="M41 1028l231 -72v502l-231 -117v-313z" />
<glyph unicode="(" horiz-adv-x="577" d="M41 -12l102 -103l131 133v551l-233 146v-727zM41 743l233 117v580l-131 133l-102 -103v-727zM172 -145l102 -101h263l-146 234h-88zM172 1604l131 -134h88l146 234h-263z" />
<glyph unicode=")" horiz-adv-x="577" d="M41 -246h262l103 101l-132 133h-88zM41 1704l145 -234h88l132 134l-103 100h-262zM303 18l131 -133l103 103v727l-234 -146v-551zM303 860l234 -117v727l-103 103l-131 -133v-580z" />
<glyph unicode="*" horiz-adv-x="909" d="M41 856l135 -57l250 151v133l-104 74l-267 -156zM334 1206l117 -90l120 82v283l-116 90l-121 -84v-281zM473 948l283 -153l112 71l-20 140l-268 147l-107 -66v-139z" />
<glyph unicode="+" horiz-adv-x="1243" d="M41 463h459v-463h245v463h457v246h-457v454h-245v-454h-459v-246z" />
<glyph unicode="," horiz-adv-x="313" d="M41 -233h231v598h-231v-598z" />
<glyph unicode="-" horiz-adv-x="657" d="M41 582h575v143h-575v-143z" />
<glyph unicode="." horiz-adv-x="313" d="M41 0h231v365h-231v-365z" />
<glyph unicode="/" horiz-adv-x="1202" d="M41 0h209l911 1458h-207z" />
<glyph unicode="0" d="M41 233l100 -102l131 133v334l-231 117v-482zM41 743l231 146v305l-131 133l-100 -102v-482zM172 100l100 -100h379l105 100l-133 133h-320zM172 1358l131 -133h320l133 133l-105 100h-379zM651 264l133 -133l103 102v482l-236 -117v-334zM651 889l236 -146v482l-103 102 l-133 -133v-305z" />
<glyph unicode="1" horiz-adv-x="722" d="M41 1458l231 -233h148l231 233h-610zM449 264l233 -235v686l-233 -117v-334zM449 889l233 -146v687l-233 -236v-305z" />
<glyph unicode="2" d="M41 0l231 264v334l-231 117v-715zM55 1225h568l133 133l-105 100h-379zM98 0h789l-264 233h-320zM98 729l205 -100h320l204 100l-204 131h-320zM651 889l236 -146v482l-103 102l-133 -133v-305z" />
<glyph unicode="3" d="M41 0h610l105 100l-131 133h-322zM41 1458l262 -233h322l131 133l-105 100h-610zM100 729l203 -100h322l204 100l-204 131h-322zM651 264l133 -133l103 102v482l-236 -117v-334zM651 889l236 -146v482l-103 102l-133 -133v-305z" />
<glyph unicode="4" d="M41 743l231 146v336l-231 233v-715zM98 729l205 -100h320l204 100l-204 131h-320zM651 233l236 -233v715l-236 -117v-365zM651 889l236 -146v715l-236 -233v-336z" />
<glyph unicode="5" horiz-adv-x="942" d="M41 0h627l102 100l-133 133h-320zM55 743l232 146v305l-232 248v-699zM94 1458l223 -233h320l264 233h-807zM113 729l204 -100h320l205 100l-205 131h-320zM668 264l131 -133l102 102v482l-233 -117v-334z" />
<glyph unicode="6" d="M41 233l100 -102l131 133v334l-231 117v-482zM41 743l231 146v305l-131 133l-100 -102v-482zM98 729l205 -100h320l204 100l-204 131h-320zM172 100l100 -100h379l105 100l-133 133h-320zM172 1358l131 -133h320l264 233h-615zM651 264l133 -133l103 102v482l-236 -117 v-334z" />
<glyph unicode="7" horiz-adv-x="899" d="M41 1458l233 -233h322l233 233h-788zM625 233l233 -233v715l-233 -117v-365zM625 889l233 -146v687l-233 -236v-305z" />
<glyph unicode="8" d="M41 233l100 -102l131 133v334l-231 117v-482zM41 743l231 146v305l-131 133l-100 -102v-482zM98 729l205 -100h320l204 100l-204 131h-320zM172 100l100 -100h379l105 100l-133 133h-320zM172 1358l131 -133h320l133 133l-105 100h-379zM651 264l133 -133l103 102v482 l-236 -117v-334zM651 889l236 -146v482l-103 102l-133 -133v-305z" />
<glyph unicode="9" d="M41 0h610l105 100l-133 133h-320zM41 743l231 117v334l-131 133l-100 -102v-482zM98 729l205 -131h320l204 131l-204 100h-320zM172 1358l131 -133h320l133 133l-105 100h-379zM651 264l133 -133l103 102v482l-236 -146v-305zM651 860l236 -117v482l-103 102l-133 -133 v-334z" />
<glyph unicode=":" horiz-adv-x="313" d="M41 0h231v365h-231v-365zM41 655h231v365h-231v-365z" />
<glyph unicode=";" horiz-adv-x="313" d="M41 -233h231v598h-231v-598zM41 655h231v365h-231v-365z" />
<glyph unicode="&#x3c;" horiz-adv-x="1191" d="M41 465l1110 -533v244l-789 385l789 385v244l-1110 -535v-190z" />
<glyph unicode="=" horiz-adv-x="1243" d="M41 270h1161v244h-1161v-244zM41 649h1161v244h-1161v-244z" />
<glyph unicode="&#x3e;" horiz-adv-x="1191" d="M41 -68l1110 533v190l-1110 535v-244l790 -385l-790 -385v-244z" />
<glyph unicode="?" horiz-adv-x="870" d="M41 1458l205 -233h319l131 133l-100 100h-555zM246 0h233v365h-233v-365zM246 629h319l205 100l-205 131h-319v-231zM596 889l233 -146v482l-104 102l-129 -133v-305z" />
<glyph unicode="A" d="M41 0l231 233v365l-231 117v-715zM41 743l231 146v305l-231 236v-687zM70 1458l233 -233h320l233 233h-786zM98 729l205 -100h320l204 100l-204 131h-320zM651 233l236 -233v715l-236 -117v-365zM651 889l236 -146v687l-236 -236v-305z" />
<glyph unicode="B" d="M41 29l231 235v334l-231 117v-686zM41 743l231 146v305l-231 236v-687zM70 0h581l105 100l-133 133h-320zM70 1458l233 -233h320l133 133l-105 100h-581zM98 729l205 -100h320l204 100l-204 131h-320zM651 264l133 -133l103 102v482l-236 -117v-334zM651 889l236 -146 v482l-103 102l-133 -133v-305z" />
<glyph unicode="C" horiz-adv-x="897" d="M41 233l100 -102l131 133v305l-231 146v-482zM41 743l231 117v334l-131 133l-100 -102v-482zM172 100l100 -100h584l-233 233h-320zM172 1358l131 -133h320l233 233h-584z" />
<glyph unicode="D" d="M41 29l231 235v334l-231 117v-686zM41 743l231 146v305l-231 236v-687zM70 0h581l105 100l-133 133h-320zM70 1458l233 -233h320l133 133l-105 100h-581zM651 264l133 -133l103 102v482l-236 -117v-334zM651 889l236 -146v482l-103 102l-133 -133v-305z" />
<glyph unicode="E" horiz-adv-x="897" d="M41 29l231 235v334l-231 117v-686zM41 743l231 146v305l-231 236v-687zM70 0h786l-233 233h-320zM70 1458l233 -233h320l233 233h-786zM98 729l205 -100h320l204 100l-204 131h-320z" />
<glyph unicode="F" horiz-adv-x="897" d="M41 0l231 233v365l-231 117v-715zM41 743l231 146v305l-231 236v-687zM70 1458l233 -233h320l233 233h-786zM98 729l205 -100h320l204 100l-204 131h-320z" />
<glyph unicode="G" d="M41 233l100 -102l131 133v334l-231 117v-482zM41 743l231 146v305l-131 133l-100 -102v-482zM172 100l100 -100h379l105 100l-133 133h-320zM172 1358l131 -133h320l133 133l-105 100h-379zM272 729l205 -100h146l204 100l-204 131h-146zM651 264l133 -133l103 102v482 l-236 -117v-334z" />
<glyph unicode="H" d="M41 0l231 233v365l-231 117v-715zM41 743l231 146v336l-231 233v-715zM98 729l205 -100h320l204 100l-204 131h-320zM651 233l236 -233v715l-236 -117v-365zM651 889l236 -146v715l-236 -233v-336z" />
<glyph unicode="I" horiz-adv-x="313" d="M41 233l231 -233v715l-231 -117v-365zM41 889l231 -146v715l-231 -233v-336z" />
<glyph unicode="J" d="M41 29l231 235v334l-231 117v-686zM70 0h786l-233 233h-320zM651 264l236 -235v686l-236 -117v-334zM651 889l236 -146v715l-236 -233v-336z" />
<glyph unicode="K" d="M41 0l231 233v365l-231 117v-715zM41 743l231 146v336l-231 233v-715zM98 729l205 -100h320l204 100l-204 131h-320zM383 903h266l238 397v158h-168zM651 233l236 -233v715l-236 -117v-365z" />
<glyph unicode="L" d="M41 29l231 235v334l-231 117v-686zM41 743l231 146v336l-231 233v-715zM70 0h786l-233 233h-320zM651 264l236 -235v686l-236 -117v-334z" />
<glyph unicode="M" horiz-adv-x="1540" d="M41 0l231 233v365l-231 117v-715zM41 743l231 146v305l-231 236v-687zM70 1458l229 -233h326l145 145l141 -145h324l235 233h-1400zM651 233l119 -233l117 233v365l-117 117l-119 -117v-365zM651 829l119 -86l115 86v365l-117 121l-117 -121v-365zM1266 233l233 -233v715 l-233 -117v-365zM1266 889l233 -146v684l-233 -233v-305z" />
<glyph unicode="N" d="M41 0l231 205v393l-231 117v-715zM41 743l231 146v305l-131 133l-100 -102v-482zM172 1358l131 -133h320l133 133l-105 100h-379zM651 264l236 -264v715l-236 -117v-334zM651 889l236 -146v482l-103 102l-133 -133v-305z" />
<glyph unicode="O" d="M41 233l100 -102l131 133v334l-231 117v-482zM41 743l231 146v305l-131 133l-100 -102v-482zM172 100l100 -100h379l105 100l-133 133h-320zM172 1358l131 -133h320l133 133l-105 100h-379zM651 264l133 -133l103 102v482l-236 -117v-334zM651 889l236 -146v482l-103 102 l-133 -133v-305z" />
<glyph unicode="P" d="M41 0l231 233v365l-231 117v-715zM41 743l231 146v305l-231 236v-687zM70 1458l233 -233h320l133 133l-105 100h-581zM98 729l205 -100h320l204 100l-204 131h-320zM651 889l236 -146v482l-103 102l-133 -133v-305z" />
<glyph unicode="Q" horiz-adv-x="929" d="M41 233l100 -102l131 127v340l-231 117v-482zM41 743l231 146v305l-131 133l-100 -102v-482zM168 104l104 -104h263l-230 231zM172 1358l131 -133h320l133 133l-105 100h-379zM358 233l531 -530v332l-199 198h-332zM651 328l133 -131l103 102v416l-236 -117v-270z M651 889l236 -146v482l-103 102l-133 -133v-305z" />
<glyph unicode="R" horiz-adv-x="1044" d="M41 0l231 233v365l-231 117v-715zM41 743l231 146v305l-231 236v-687zM70 1458l233 -233h320l133 133l-105 100h-581zM98 729l205 -100h320l204 100l-204 131h-320zM512 586l150 -355l342 -231l-271 635l-102 -49h-119zM651 889l236 -146v482l-103 102l-133 -133v-305z " />
<glyph unicode="S" d="M41 0h610l105 100l-133 133h-320zM41 743l231 146v305l-131 133l-100 -102v-482zM98 729l205 -100h320l204 100l-204 131h-320zM172 1358l131 -133h320l264 233h-615zM651 264l133 -133l103 102v482l-236 -117v-334z" />
<glyph unicode="T" horiz-adv-x="929" d="M41 1458l160 -233h118l150 145l141 -145h115l164 233h-848zM342 129l123 -129l117 129v457l-117 131l-123 -131v-457zM344 872l123 -129l115 129v318l-115 133l-123 -135v-316z" />
<glyph unicode="U" d="M41 233l100 -102l131 133v334l-231 117v-482zM41 743l231 146v336l-231 233v-715zM172 100l100 -100h379l105 100l-133 133h-320zM651 264l133 -133l103 102v482l-236 -117v-334zM651 889l236 -146v715l-236 -233v-336z" />
<glyph unicode="V" d="M41 717l266 -717l146 281l-121 329zM41 743l231 146v395l-231 174v-715zM348 0h230l-111 231zM483 285l140 -285l264 717l-285 -105zM651 889l236 -146v715l-236 -174v-395z" />
<glyph unicode="W" horiz-adv-x="1542" d="M41 236l98 -101l133 133v301l-231 150v-483zM41 743l231 117v365l-231 233v-715zM168 104l100 -104h996l104 106l-133 127h-324l-141 -143l-143 143h-330zM651 860l119 -117l117 117v365l-117 233l-119 -233v-365zM653 264l119 -121l115 121v365l-117 86l-117 -86v-365z M1262 270l133 -135l106 101v481l-239 -146v-301zM1266 860l233 -117v715l-233 -233v-365z" />
<glyph unicode="X" horiz-adv-x="935" d="M41 0h135l273 465v242h-138l-270 -467v-240zM41 1227l276 -475h132v233l-267 473h-141v-231zM487 465l267 -465h141v229l-274 478h-134v-242zM489 752h132l274 462v244h-131l-275 -473v-233z" />
<glyph unicode="Y" d="M41 743l231 146v336l-231 233v-715zM98 729l205 -100h320l204 100l-204 131h-320zM344 131l119 -131l121 131v453h-240v-453zM651 889l236 -146v715l-236 -233v-336z" />
<glyph unicode="Z" horiz-adv-x="931" d="M41 0h186l338 651l-262 19l-262 -449v-221zM43 1458l233 -233h302l137 233h-672zM266 0h623l-236 233h-264zM434 903l146 -219l311 535v239h-129z" />
<glyph unicode="[" horiz-adv-x="577" d="M41 -12l102 -103l131 133v551l-233 146v-727zM41 743l233 117v580l-131 133l-102 -103v-727zM172 -145l102 -101h263l-146 234h-88zM172 1604l131 -134h88l146 234h-263z" />
<glyph unicode="\" horiz-adv-x="1202" d="M41 1458l911 -1458h209l-913 1458h-207z" />
<glyph unicode="]" horiz-adv-x="577" d="M41 -246h262l103 101l-132 133h-88zM41 1704l145 -234h88l132 134l-103 100h-262zM303 18l131 -133l103 103v727l-234 -146v-551zM303 860l234 -117v727l-103 103l-131 -133v-580z" />
<glyph unicode="^" horiz-adv-x="886" d="M41 1130h307l80 125l-145 281zM324 1536l118 -231l111 231h-229zM459 1251l78 -123h309l-248 408z" />
<glyph unicode="_" horiz-adv-x="1243" d="M41 0v-244h1161v244h-1161z" />
<glyph unicode="`" horiz-adv-x="493" d="M41 1882l172 -278h240l-160 278h-252z" />
<glyph unicode="a" d="M41 0l231 233v365l-231 117v-715zM41 743l231 146v305l-231 236v-687zM70 1458l233 -233h320l233 233h-786zM98 729l205 -100h320l204 100l-204 131h-320zM651 233l236 -233v715l-236 -117v-365zM651 889l236 -146v687l-236 -236v-305z" />
<glyph unicode="b" d="M41 29l231 235v334l-231 117v-686zM41 743l231 146v305l-231 236v-687zM70 0h581l105 100l-133 133h-320zM70 1458l233 -233h320l133 133l-105 100h-581zM98 729l205 -100h320l204 100l-204 131h-320zM651 264l133 -133l103 102v482l-236 -117v-334zM651 889l236 -146 v482l-103 102l-133 -133v-305z" />
<glyph unicode="c" horiz-adv-x="897" d="M41 233l100 -102l131 133v305l-231 146v-482zM41 743l231 117v334l-131 133l-100 -102v-482zM172 100l100 -100h584l-233 233h-320zM172 1358l131 -133h320l233 233h-584z" />
<glyph unicode="d" d="M41 29l231 235v334l-231 117v-686zM41 743l231 146v305l-231 236v-687zM70 0h581l105 100l-133 133h-320zM70 1458l233 -233h320l133 133l-105 100h-581zM651 264l133 -133l103 102v482l-236 -117v-334zM651 889l236 -146v482l-103 102l-133 -133v-305z" />
<glyph unicode="e" horiz-adv-x="897" d="M41 29l231 235v334l-231 117v-686zM41 743l231 146v305l-231 236v-687zM70 0h786l-233 233h-320zM70 1458l233 -233h320l233 233h-786zM98 729l205 -100h320l204 100l-204 131h-320z" />
<glyph unicode="f" horiz-adv-x="897" d="M41 0l231 233v365l-231 117v-715zM41 743l231 146v305l-231 236v-687zM70 1458l233 -233h320l233 233h-786zM98 729l205 -100h320l204 100l-204 131h-320z" />
<glyph unicode="g" d="M41 233l100 -102l131 133v334l-231 117v-482zM41 743l231 146v305l-131 133l-100 -102v-482zM172 100l100 -100h379l105 100l-133 133h-320zM172 1358l131 -133h320l133 133l-105 100h-379zM272 729l205 -100h146l204 100l-204 131h-146zM651 264l133 -133l103 102v482 l-236 -117v-334z" />
<glyph unicode="h" d="M41 0l231 233v365l-231 117v-715zM41 743l231 146v336l-231 233v-715zM98 729l205 -100h320l204 100l-204 131h-320zM651 233l236 -233v715l-236 -117v-365zM651 889l236 -146v715l-236 -233v-336z" />
<glyph unicode="i" horiz-adv-x="313" d="M41 233l231 -233v715l-231 -117v-365zM41 889l231 -146v715l-231 -233v-336z" />
<glyph unicode="j" d="M41 29l231 235v334l-231 117v-686zM70 0h786l-233 233h-320zM651 264l236 -235v686l-236 -117v-334zM651 889l236 -146v715l-236 -233v-336z" />
<glyph unicode="k" d="M41 0l231 233v365l-231 117v-715zM41 743l231 146v336l-231 233v-715zM98 729l205 -100h320l204 100l-204 131h-320zM383 903h266l238 397v158h-168zM651 233l236 -233v715l-236 -117v-365z" />
<glyph unicode="l" d="M41 29l231 235v334l-231 117v-686zM41 743l231 146v336l-231 233v-715zM70 0h786l-233 233h-320zM651 264l236 -235v686l-236 -117v-334z" />
<glyph unicode="m" horiz-adv-x="1540" d="M41 0l231 233v365l-231 117v-715zM41 743l231 146v305l-231 236v-687zM70 1458l229 -233h326l145 145l141 -145h324l235 233h-1400zM651 233l119 -233l117 233v365l-117 117l-119 -117v-365zM651 829l119 -86l115 86v365l-117 121l-117 -121v-365zM1266 233l233 -233v715 l-233 -117v-365zM1266 889l233 -146v684l-233 -233v-305z" />
<glyph unicode="n" d="M41 0l231 205v393l-231 117v-715zM41 743l231 146v305l-131 133l-100 -102v-482zM172 1358l131 -133h320l133 133l-105 100h-379zM651 264l236 -264v715l-236 -117v-334zM651 889l236 -146v482l-103 102l-133 -133v-305z" />
<glyph unicode="o" d="M41 233l100 -102l131 133v334l-231 117v-482zM41 743l231 146v305l-131 133l-100 -102v-482zM172 100l100 -100h379l105 100l-133 133h-320zM172 1358l131 -133h320l133 133l-105 100h-379zM651 264l133 -133l103 102v482l-236 -117v-334zM651 889l236 -146v482l-103 102 l-133 -133v-305z" />
<glyph unicode="p" d="M41 0l231 233v365l-231 117v-715zM41 743l231 146v305l-231 236v-687zM70 1458l233 -233h320l133 133l-105 100h-581zM98 729l205 -100h320l204 100l-204 131h-320zM651 889l236 -146v482l-103 102l-133 -133v-305z" />
<glyph unicode="q" horiz-adv-x="929" d="M41 233l100 -102l131 127v340l-231 117v-482zM41 743l231 146v305l-131 133l-100 -102v-482zM168 104l104 -104h263l-230 231zM172 1358l131 -133h320l133 133l-105 100h-379zM358 233l531 -530v332l-199 198h-332zM651 328l133 -131l103 102v416l-236 -117v-270z M651 889l236 -146v482l-103 102l-133 -133v-305z" />
<glyph unicode="r" horiz-adv-x="1044" d="M41 0l231 233v365l-231 117v-715zM41 743l231 146v305l-231 236v-687zM70 1458l233 -233h320l133 133l-105 100h-581zM98 729l205 -100h320l204 100l-204 131h-320zM512 586l150 -355l342 -231l-271 635l-102 -49h-119zM651 889l236 -146v482l-103 102l-133 -133v-305z " />
<glyph unicode="s" d="M41 0h610l105 100l-133 133h-320zM41 743l231 146v305l-131 133l-100 -102v-482zM98 729l205 -100h320l204 100l-204 131h-320zM172 1358l131 -133h320l264 233h-615zM651 264l133 -133l103 102v482l-236 -117v-334z" />
<glyph unicode="t" horiz-adv-x="929" d="M41 1458l160 -233h118l150 145l141 -145h115l164 233h-848zM342 129l123 -129l117 129v457l-117 131l-123 -131v-457zM344 872l123 -129l115 129v318l-115 133l-123 -135v-316z" />
<glyph unicode="u" d="M41 233l100 -102l131 133v334l-231 117v-482zM41 743l231 146v336l-231 233v-715zM172 100l100 -100h379l105 100l-133 133h-320zM651 264l133 -133l103 102v482l-236 -117v-334zM651 889l236 -146v715l-236 -233v-336z" />
<glyph unicode="v" d="M41 717l266 -717l146 281l-121 329zM41 743l231 146v395l-231 174v-715zM348 0h230l-111 231zM483 285l140 -285l264 717l-285 -105zM651 889l236 -146v715l-236 -174v-395z" />
<glyph unicode="w" horiz-adv-x="1542" d="M41 236l98 -101l133 133v301l-231 150v-483zM41 743l231 117v365l-231 233v-715zM168 104l100 -104h996l104 106l-133 127h-324l-141 -143l-143 143h-330zM651 860l119 -117l117 117v365l-117 233l-119 -233v-365zM653 264l119 -121l115 121v365l-117 86l-117 -86v-365z M1262 270l133 -135l106 101v481l-239 -146v-301zM1266 860l233 -117v715l-233 -233v-365z" />
<glyph unicode="x" horiz-adv-x="935" d="M41 0h135l273 465v242h-138l-270 -467v-240zM41 1227l276 -475h132v233l-267 473h-141v-231zM487 465l267 -465h141v229l-274 478h-134v-242zM489 752h132l274 462v244h-131l-275 -473v-233z" />
<glyph unicode="y" d="M41 743l231 146v336l-231 233v-715zM98 729l205 -100h320l204 100l-204 131h-320zM344 131l119 -131l121 131v453h-240v-453zM651 889l236 -146v715l-236 -233v-336z" />
<glyph unicode="z" horiz-adv-x="931" d="M41 0h186l338 651l-262 19l-262 -449v-221zM43 1458l233 -233h302l137 233h-672zM266 0h623l-236 233h-264zM434 903l146 -219l311 535v239h-129z" />
<glyph unicode="{" horiz-adv-x="577" d="M41 -12l102 -103l131 133v551l-233 146v-727zM41 743l233 117v580l-131 133l-102 -103v-727zM172 -145l102 -101h263l-146 234h-88zM172 1604l131 -134h88l146 234h-263z" />
<glyph unicode="|" horiz-adv-x="313" d="M41 70l231 -234v879l-231 -117v-528zM41 889l231 -146v879l-231 -233v-500z" />
<glyph unicode="}" horiz-adv-x="577" d="M41 -246h262l103 101l-132 133h-88zM41 1704l145 -234h88l132 134l-103 100h-262zM303 18l131 -133l103 103v727l-234 -146v-551zM303 860l234 -117v727l-103 103l-131 -133v-580z" />
<glyph unicode="~" horiz-adv-x="958" d="M41 967h231v80l-131 133l-100 -103v-110zM172 1210l131 -133h320l133 133l-105 101h-379zM682 1343l133 -133l103 103v119h-236v-89z" />
<glyph unicode="&#xa2;" horiz-adv-x="897" d="M41 233l100 -102l131 133v142l-231 145v-318zM41 580l231 116v129l-131 133l-100 -102v-276zM172 100l100 -100h584l-233 233h-320zM172 989l131 -133h320l233 234h-584zM365 -61v-172l100 -103l131 133v142h-231zM365 1151h231v88l-131 133l-100 -102v-119z" />
<glyph unicode="&#xab;" horiz-adv-x="925" d="M41 438l102 -102l133 133v242l-133 133l-102 -103v-303zM172 305l104 -100h158v233h-129zM172 874l133 -133h129v234h-158zM492 438l102 -102l133 133v242l-133 133l-102 -103v-303zM623 305l104 -100h158v233h-129zM623 874l133 -133h129v234h-158z" />
<glyph unicode="&#xad;" horiz-adv-x="657" d="M41 582h575v143h-575v-143z" />
<glyph unicode="&#xbb;" horiz-adv-x="925" d="M41 205h158l104 100l-133 133h-129v-233zM41 741h129l133 133l-104 101h-158v-234zM199 469l133 -133l102 102v303l-102 103l-133 -133v-242zM492 205h157l105 100l-133 133h-129v-233zM492 741h129l133 133l-105 101h-157v-234zM649 469l133 -133l103 102v303l-103 103 l-133 -133v-242z" />
<glyph unicode="&#x401;" horiz-adv-x="897" d="M41 29l231 235v334l-231 117v-686zM41 743l231 146v305l-231 236v-687zM70 0h786l-233 233h-320zM70 1458l233 -233h320l233 233h-786zM98 729l205 -100h320l204 100l-204 131h-320zM143 1599h232v283h-232v-283zM512 1599h231v283h-231v-283z" />
<glyph unicode="&#x406;" horiz-adv-x="313" d="M41 -229l231 233v627l-231 145v-1005zM41 864h231v365h-231v-365z" />
<glyph unicode="&#x407;" horiz-adv-x="681" d="M41 1599h231v283h-231v-283zM225 233l232 -233v715l-232 -117v-365zM225 889l232 -146v715l-232 -233v-336zM410 1599h231v283h-231v-283z" />
<glyph unicode="&#x410;" d="M41 0l231 233v365l-231 117v-715zM41 743l231 146v305l-231 236v-687zM70 1458l233 -233h320l233 233h-786zM98 729l205 -100h320l204 100l-204 131h-320zM651 233l236 -233v715l-236 -117v-365zM651 889l236 -146v687l-236 -236v-305z" />
<glyph unicode="&#x411;" d="M41 29l231 235v334l-231 117v-686zM41 743l231 146v305l-231 236v-687zM70 0h581l105 100l-133 133h-320zM70 1458l233 -233h320l206 233h-759zM98 729l205 -100h320l204 100l-204 131h-320zM651 264l133 -133l103 102v482l-236 -117v-334z" />
<glyph unicode="&#x412;" d="M41 29l231 235v334l-231 117v-686zM41 743l231 146v305l-231 236v-687zM70 0h581l105 100l-133 133h-320zM70 1458l233 -233h320l133 133l-105 100h-581zM98 729l205 -100h320l204 100l-204 131h-320zM651 264l133 -133l103 102v482l-236 -117v-334zM651 889l236 -146 v482l-103 102l-133 -133v-305z" />
<glyph unicode="&#x413;" horiz-adv-x="897" d="M41 0l231 233v336l-231 146v-715zM41 743l231 117v334l-231 236v-687zM70 1458l233 -233h320l233 233h-786z" />
<glyph unicode="&#x414;" horiz-adv-x="1423" d="M41 0h1341l-233 233l-854 3zM295 264h235v334l-235 117v-451zM295 743l235 146v305l-133 133l-102 -102v-482zM426 1358l133 -133h320l233 233h-582zM909 264h232v451l-232 -117v-334zM909 889l232 -146v687l-232 -236v-305z" />
<glyph unicode="&#x415;" horiz-adv-x="897" d="M41 29l231 235v334l-231 117v-686zM41 743l231 146v305l-231 236v-687zM70 0h786l-233 233h-320zM70 1458l233 -233h320l233 233h-786zM98 729l205 -100h320l204 100l-204 131h-320z" />
<glyph unicode="&#x416;" horiz-adv-x="1540" d="M41 0l235 233v365l-235 117v-715zM41 1300l238 -397h266l-336 555h-168v-158zM100 729l205 -100h320l28 14v-643l232 233v410l30 -14h320l205 100l-205 131h-320l-28 -18v616l-232 -233v-383l-30 18h-320zM725 678l45 20l43 -20l-43 -23zM731 793l39 24l39 -24l-39 -27z M995 903h267l237 397v158h-168zM1264 233l235 -233v715l-235 -117v-365z" />
<glyph unicode="&#x417;" horiz-adv-x="899" d="M41 0h582l104 100l-133 133h-320zM41 1458l233 -233h320l133 133l-104 100h-582zM70 729l204 -100h320l205 100l-205 131h-320zM623 264l133 -133l102 102v482l-235 -117v-334zM623 889l235 -146v482l-102 102l-133 -133v-305z" />
<glyph unicode="&#x418;" d="M41 233l100 -102l131 133v334l-231 117v-482zM41 743l231 146v336l-231 233v-715zM172 100l100 -100h379l105 100l-133 133h-320zM651 264l236 -264v715l-236 -117v-334zM651 889l236 -146v715l-236 -233v-336z" />
<glyph unicode="&#x419;" d="M41 233l100 -102l131 133v334l-231 117v-482zM41 743l231 146v336l-231 233v-715zM172 100l100 -100h379l105 100l-133 133h-320zM346 1360h232v364h-232v-364zM651 264l236 -264v715l-236 -117v-334zM651 889l236 -146v715l-236 -233v-336z" />
<glyph unicode="&#x41a;" d="M41 0l231 233v365l-231 117v-715zM41 743l231 146v336l-231 233v-715zM98 729l205 -100h320l204 100l-204 131h-320zM383 903h266l238 397v158h-168zM651 233l236 -233v715l-236 -117v-365z" />
<glyph unicode="&#x41b;" d="M41 0l231 174v395l-231 146v-715zM41 741l291 107l121 330l-146 280zM348 1458l119 -231l111 231h-230zM483 1174l119 -328l285 -105l-264 717zM651 174l236 -174v715l-236 -146v-395z" />
<glyph unicode="&#x41c;" horiz-adv-x="1540" d="M41 0l231 233v365l-231 117v-715zM41 743l231 146v305l-231 236v-687zM70 1458l229 -233h326l145 145l141 -145h324l235 233h-1400zM651 233l119 -233l117 233v365l-117 117l-119 -117v-365zM651 829l119 -86l115 86v365l-117 121l-117 -121v-365zM1266 233l233 -233v715 l-233 -117v-365zM1266 889l233 -146v684l-233 -233v-305z" />
<glyph unicode="&#x41d;" d="M41 0l231 233v365l-231 117v-715zM41 743l231 146v336l-231 233v-715zM98 729l205 -100h320l204 100l-204 131h-320zM651 233l236 -233v715l-236 -117v-365zM651 889l236 -146v715l-236 -233v-336z" />
<glyph unicode="&#x41e;" d="M41 233l100 -102l131 133v334l-231 117v-482zM41 743l231 146v305l-131 133l-100 -102v-482zM172 100l100 -100h379l105 100l-133 133h-320zM172 1358l131 -133h320l133 133l-105 100h-379zM651 264l133 -133l103 102v482l-236 -117v-334zM651 889l236 -146v482l-103 102 l-133 -133v-305z" />
<glyph unicode="&#x41f;" horiz-adv-x="931" d="M41 4l231 234v364l-231 117v-715zM41 748l231 145v305l-231 236v-686zM72 1458l235 -233h326l229 233h-790zM659 233l232 -233v715l-232 -117v-365zM659 889l232 -146v687l-232 -236v-305z" />
<glyph unicode="&#x420;" d="M41 0l231 233v365l-231 117v-715zM41 743l231 146v305l-231 236v-687zM70 1458l233 -233h320l133 133l-105 100h-581zM98 729l205 -100h320l204 100l-204 131h-320zM651 889l236 -146v482l-103 102l-133 -133v-305z" />
<glyph unicode="&#x421;" horiz-adv-x="897" d="M41 233l100 -102l131 133v305l-231 146v-482zM41 743l231 117v334l-131 133l-100 -102v-482zM172 100l100 -100h584l-233 233h-320zM172 1358l131 -133h320l233 233h-584z" />
<glyph unicode="&#x422;" horiz-adv-x="929" d="M41 1458l160 -233h118l150 145l141 -145h115l164 233h-848zM342 129l123 -129l117 129v457l-117 131l-123 -131v-457zM344 872l123 -129l115 129v318l-115 133l-123 -135v-316z" />
<glyph unicode="&#x423;" d="M41 743l231 146v336l-231 233v-715zM98 729l205 -100h320l204 100l-204 131h-320zM106 0h715l-229 238h-365zM651 238l236 -238v715l-236 -117v-360zM651 889l236 -146v715l-236 -233v-336z" />
<glyph unicode="&#x424;" horiz-adv-x="1550" d="M41 731l235 146v305l-133 133l-102 -103v-481zM100 717l205 -101h320v232h-320zM172 1346l133 -134h320v234h-349zM664 -12l231 233v365l-231 116v-714zM664 731l231 146v305l-231 235v-686zM692 1446l234 -234h319l133 134l-104 100h-582zM721 717l205 -101h319l205 101 l-205 131h-319zM1274 877l235 -146v481l-102 103l-133 -133v-305z" />
<glyph unicode="&#x425;" horiz-adv-x="935" d="M41 0h135l273 465v242h-138l-270 -467v-240zM41 1227l276 -475h132v233l-267 473h-141v-231zM487 465l267 -465h141v229l-274 478h-134v-242zM489 752h132l274 462v244h-131l-275 -473v-233z" />
<glyph unicode="&#x426;" horiz-adv-x="1290" d="M41 233l100 -102l131 133v334l-231 117v-482zM41 743l231 146v336l-231 233v-715zM172 100l100 -100h379l105 100l-133 133h-320zM651 264l133 -133l103 102v482l-236 -117v-334zM651 889l236 -146v715l-236 -233v-336zM713 8v-325l536 526h-336z" />
<glyph unicode="&#x427;" d="M41 743l231 146v336l-231 233v-715zM98 729l205 -100h320l204 100l-204 131h-320zM651 233l236 -233v715l-236 -117v-365zM651 889l236 -146v715l-236 -233v-336z" />
<glyph unicode="&#x428;" horiz-adv-x="1568" d="M41 236l98 -101l133 133v301l-231 150v-483zM41 743l231 117v365l-231 233v-715zM168 104l100 -104h1260l-293 233h-324l-141 -143l-143 143h-330zM651 860l119 -117l117 117v365l-117 233l-119 -233v-365zM653 264l119 -121l115 121v365l-117 86l-117 -86v-365z M1262 270l239 -186v633l-239 -146v-301zM1266 860l233 -117v715l-233 -233v-365z" />
<glyph unicode="&#x429;" horiz-adv-x="1923" d="M41 236l98 -101l133 133v301l-231 150v-483zM41 743l231 117v365l-231 233v-715zM168 104l100 -104h996l104 106l-133 127h-324l-141 -143l-143 143h-330zM651 860l119 -117l117 117v365l-117 233l-119 -233v-365zM653 264l119 -121l115 121v365l-117 86l-117 -86v-365z M1262 270l133 -135l106 101v481l-239 -146v-301zM1266 860l233 -117v715l-233 -233v-365zM1339 6v-325l543 528h-342z" />
<glyph unicode="&#x42a;" horiz-adv-x="1280" d="M41 926l537 532h-338l-199 -207v-325zM393 29l232 235v305l-232 146v-686zM395 743l230 117l2 598l-232 -233v-482zM422 0h582l104 100l-133 133h-320zM451 729l204 -131h320l205 131l-205 100h-320zM1004 264l133 -133l102 102v482l-235 -146v-305z" />
<glyph unicode="&#x42b;" horiz-adv-x="1409" d="M41 29l231 235v305l-231 146v-686zM41 743l231 117v365l-231 233v-715zM70 0h581l105 100l-133 133h-320zM98 729l205 -131h320l204 131l-204 100h-320zM651 264l133 -133l103 102v482l-236 -146v-305zM1137 233l231 -233v715l-231 -117v-365zM1137 889l231 -146v715 l-231 -233v-336z" />
<glyph unicode="&#x42c;" d="M41 29l231 235v305l-231 146v-686zM41 743l231 117v365l-231 233v-715zM70 0h581l105 100l-133 133h-320zM98 729l205 -131h320l204 131l-204 100h-320zM651 264l133 -133l103 102v482l-236 -146v-305z" />
<glyph unicode="&#x42d;" horiz-adv-x="899" d="M41 233l233 -233h349l104 100l-133 133h-553zM41 1223h553l133 135l-104 100h-349zM70 729l204 -100h320l205 100l-205 131h-320zM623 264l133 -133l102 102v482l-235 -117v-334zM623 889l235 -146v482l-102 102l-133 -133v-305z" />
<glyph unicode="&#x42e;" horiz-adv-x="1562" d="M41 0l231 233v365l-231 117v-715zM41 743l231 146v305l-231 236v-687zM98 729l205 -100h320v231h-320zM676 233l100 -102l131 133v334l-231 117v-482zM676 743l231 146v305l-131 133l-100 -102v-482zM807 100l100 -100h379l105 100l-134 133h-319zM807 1358l131 -133h319 l134 133l-105 100h-379zM1286 264l133 -133l103 102v482l-236 -117v-334zM1286 889l236 -146v482l-103 102l-133 -133v-305z" />
<glyph unicode="&#x42f;" horiz-adv-x="1044" d="M41 0l342 231l149 355h-118l-103 49zM158 743l235 146v305l-133 133l-102 -102v-482zM217 729l205 -100h319l205 100l-205 131h-319zM289 1358l133 -133h319l234 233h-582zM772 233l232 -233v715l-232 -117v-365zM772 889l232 -146v687l-232 -236v-305z" />
<glyph unicode="&#x430;" d="M41 0l231 233v365l-231 117v-715zM41 743l231 146v305l-231 236v-687zM70 1458l233 -233h320l233 233h-786zM98 729l205 -100h320l204 100l-204 131h-320zM651 233l236 -233v715l-236 -117v-365zM651 889l236 -146v687l-236 -236v-305z" />
<glyph unicode="&#x431;" d="M41 29l231 235v334l-231 117v-686zM41 743l231 146v305l-231 236v-687zM70 0h581l105 100l-133 133h-320zM70 1458l233 -233h320l206 233h-759zM98 729l205 -100h320l204 100l-204 131h-320zM651 264l133 -133l103 102v482l-236 -117v-334z" />
<glyph unicode="&#x432;" d="M41 29l231 235v334l-231 117v-686zM41 743l231 146v305l-231 236v-687zM70 0h581l105 100l-133 133h-320zM70 1458l233 -233h320l133 133l-105 100h-581zM98 729l205 -100h320l204 100l-204 131h-320zM651 264l133 -133l103 102v482l-236 -117v-334zM651 889l236 -146 v482l-103 102l-133 -133v-305z" />
<glyph unicode="&#x433;" horiz-adv-x="897" d="M41 0l231 233v336l-231 146v-715zM41 743l231 117v334l-231 236v-687zM70 1458l233 -233h320l233 233h-786z" />
<glyph unicode="&#x434;" horiz-adv-x="1423" d="M41 0h1341l-233 233l-854 3zM295 264h235v334l-235 117v-451zM295 743l235 146v305l-133 133l-102 -102v-482zM426 1358l133 -133h320l233 233h-582zM909 264h232v451l-232 -117v-334zM909 889l232 -146v687l-232 -236v-305z" />
<glyph unicode="&#x435;" horiz-adv-x="897" d="M41 29l231 235v334l-231 117v-686zM41 743l231 146v305l-231 236v-687zM70 0h786l-233 233h-320zM70 1458l233 -233h320l233 233h-786zM98 729l205 -100h320l204 100l-204 131h-320z" />
<glyph unicode="&#x436;" horiz-adv-x="1540" d="M41 0l235 233v365l-235 117v-715zM41 1300l238 -397h266l-336 555h-168v-158zM100 729l205 -100h320l28 14v-643l232 233v410l30 -14h320l205 100l-205 131h-320l-28 -18v616l-232 -233v-383l-30 18h-320zM725 678l45 20l43 -20l-43 -23zM731 793l39 24l39 -24l-39 -27z M995 903h267l237 397v158h-168zM1264 233l235 -233v715l-235 -117v-365z" />
<glyph unicode="&#x437;" horiz-adv-x="899" d="M41 0h582l104 100l-133 133h-320zM41 1458l233 -233h320l133 133l-104 100h-582zM70 729l204 -100h320l205 100l-205 131h-320zM623 264l133 -133l102 102v482l-235 -117v-334zM623 889l235 -146v482l-102 102l-133 -133v-305z" />
<glyph unicode="&#x438;" d="M41 233l100 -102l131 133v334l-231 117v-482zM41 743l231 146v336l-231 233v-715zM172 100l100 -100h379l105 100l-133 133h-320zM651 264l236 -264v715l-236 -117v-334zM651 889l236 -146v715l-236 -233v-336z" />
<glyph unicode="&#x439;" d="M41 233l100 -102l131 133v334l-231 117v-482zM41 743l231 146v336l-231 233v-715zM172 100l100 -100h379l105 100l-133 133h-320zM346 1360h232v364h-232v-364zM651 264l236 -264v715l-236 -117v-334zM651 889l236 -146v715l-236 -233v-336z" />
<glyph unicode="&#x43a;" d="M41 0l231 233v365l-231 117v-715zM41 743l231 146v336l-231 233v-715zM98 729l205 -100h320l204 100l-204 131h-320zM383 903h266l238 397v158h-168zM651 233l236 -233v715l-236 -117v-365z" />
<glyph unicode="&#x43b;" d="M41 0l231 174v395l-231 146v-715zM41 741l291 107l121 330l-146 280zM348 1458l119 -231l111 231h-230zM483 1174l119 -328l285 -105l-264 717zM651 174l236 -174v715l-236 -146v-395z" />
<glyph unicode="&#x43c;" horiz-adv-x="1540" d="M41 0l231 233v365l-231 117v-715zM41 743l231 146v305l-231 236v-687zM70 1458l229 -233h326l145 145l141 -145h324l235 233h-1400zM651 233l119 -233l117 233v365l-117 117l-119 -117v-365zM651 829l119 -86l115 86v365l-117 121l-117 -121v-365zM1266 233l233 -233v715 l-233 -117v-365zM1266 889l233 -146v684l-233 -233v-305z" />
<glyph unicode="&#x43d;" d="M41 0l231 233v365l-231 117v-715zM41 743l231 146v336l-231 233v-715zM98 729l205 -100h320l204 100l-204 131h-320zM651 233l236 -233v715l-236 -117v-365zM651 889l236 -146v715l-236 -233v-336z" />
<glyph unicode="&#x43e;" d="M41 233l100 -102l131 133v334l-231 117v-482zM41 743l231 146v305l-131 133l-100 -102v-482zM172 100l100 -100h379l105 100l-133 133h-320zM172 1358l131 -133h320l133 133l-105 100h-379zM651 264l133 -133l103 102v482l-236 -117v-334zM651 889l236 -146v482l-103 102 l-133 -133v-305z" />
<glyph unicode="&#x43f;" horiz-adv-x="931" d="M41 4l231 234v364l-231 117v-715zM41 748l231 145v305l-231 236v-686zM72 1458l235 -233h326l229 233h-790zM659 233l232 -233v715l-232 -117v-365zM659 889l232 -146v687l-232 -236v-305z" />
<glyph unicode="&#x440;" d="M41 0l231 233v365l-231 117v-715zM41 743l231 146v305l-231 236v-687zM70 1458l233 -233h320l133 133l-105 100h-581zM98 729l205 -100h320l204 100l-204 131h-320zM651 889l236 -146v482l-103 102l-133 -133v-305z" />
<glyph unicode="&#x441;" horiz-adv-x="897" d="M41 233l100 -102l131 133v305l-231 146v-482zM41 743l231 117v334l-131 133l-100 -102v-482zM172 100l100 -100h584l-233 233h-320zM172 1358l131 -133h320l233 233h-584z" />
<glyph unicode="&#x442;" horiz-adv-x="929" d="M41 1458l160 -233h118l150 145l141 -145h115l164 233h-848zM342 129l123 -129l117 129v457l-117 131l-123 -131v-457zM344 872l123 -129l115 129v318l-115 133l-123 -135v-316z" />
<glyph unicode="&#x443;" d="M41 743l231 146v336l-231 233v-715zM98 729l205 -100h320l204 100l-204 131h-320zM106 0h715l-229 238h-365zM651 238l236 -238v715l-236 -117v-360zM651 889l236 -146v715l-236 -233v-336z" />
<glyph unicode="&#x444;" horiz-adv-x="1550" d="M41 731l235 146v305l-133 133l-102 -103v-481zM100 717l205 -101h320v232h-320zM172 1346l133 -134h320v234h-349zM664 -12l231 233v365l-231 116v-714zM664 731l231 146v305l-231 235v-686zM692 1446l234 -234h319l133 134l-104 100h-582zM721 717l205 -101h319l205 101 l-205 131h-319zM1274 877l235 -146v481l-102 103l-133 -133v-305z" />
<glyph unicode="&#x445;" horiz-adv-x="935" d="M41 0h135l273 465v242h-138l-270 -467v-240zM41 1227l276 -475h132v233l-267 473h-141v-231zM487 465l267 -465h141v229l-274 478h-134v-242zM489 752h132l274 462v244h-131l-275 -473v-233z" />
<glyph unicode="&#x446;" horiz-adv-x="1290" d="M41 233l100 -102l131 133v334l-231 117v-482zM41 743l231 146v336l-231 233v-715zM172 100l100 -100h379l105 100l-133 133h-320zM651 264l133 -133l103 102v482l-236 -117v-334zM651 889l236 -146v715l-236 -233v-336zM713 8v-325l536 526h-336z" />
<glyph unicode="&#x447;" d="M41 743l231 146v336l-231 233v-715zM98 729l205 -100h320l204 100l-204 131h-320zM651 233l236 -233v715l-236 -117v-365zM651 889l236 -146v715l-236 -233v-336z" />
<glyph unicode="&#x448;" horiz-adv-x="1568" d="M41 236l98 -101l133 133v301l-231 150v-483zM41 743l231 117v365l-231 233v-715zM168 104l100 -104h1260l-293 233h-324l-141 -143l-143 143h-330zM651 860l119 -117l117 117v365l-117 233l-119 -233v-365zM653 264l119 -121l115 121v365l-117 86l-117 -86v-365z M1262 270l239 -186v633l-239 -146v-301zM1266 860l233 -117v715l-233 -233v-365z" />
<glyph unicode="&#x449;" horiz-adv-x="1923" d="M41 236l98 -101l133 133v301l-231 150v-483zM41 743l231 117v365l-231 233v-715zM168 104l100 -104h996l104 106l-133 127h-324l-141 -143l-143 143h-330zM651 860l119 -117l117 117v365l-117 233l-119 -233v-365zM653 264l119 -121l115 121v365l-117 86l-117 -86v-365z M1262 270l133 -135l106 101v481l-239 -146v-301zM1266 860l233 -117v715l-233 -233v-365zM1339 6v-325l543 528h-342z" />
<glyph unicode="&#x44a;" horiz-adv-x="1280" d="M41 926l537 532h-338l-199 -207v-325zM393 29l232 235v305l-232 146v-686zM395 743l230 117l2 598l-232 -233v-482zM422 0h582l104 100l-133 133h-320zM451 729l204 -131h320l205 131l-205 100h-320zM1004 264l133 -133l102 102v482l-235 -146v-305z" />
<glyph unicode="&#x44b;" horiz-adv-x="1409" d="M41 29l231 235v305l-231 146v-686zM41 743l231 117v365l-231 233v-715zM70 0h581l105 100l-133 133h-320zM98 729l205 -131h320l204 131l-204 100h-320zM651 264l133 -133l103 102v482l-236 -146v-305zM1137 233l231 -233v715l-231 -117v-365zM1137 889l231 -146v715 l-231 -233v-336z" />
<glyph unicode="&#x44c;" d="M41 29l231 235v305l-231 146v-686zM41 743l231 117v365l-231 233v-715zM70 0h581l105 100l-133 133h-320zM98 729l205 -131h320l204 131l-204 100h-320zM651 264l133 -133l103 102v482l-236 -146v-305z" />
<glyph unicode="&#x44d;" horiz-adv-x="899" d="M41 233l233 -233h349l104 100l-133 133h-553zM41 1223h553l133 135l-104 100h-349zM70 729l204 -100h320l205 100l-205 131h-320zM623 264l133 -133l102 102v482l-235 -117v-334zM623 889l235 -146v482l-102 102l-133 -133v-305z" />
<glyph unicode="&#x44e;" horiz-adv-x="1562" d="M41 0l231 233v365l-231 117v-715zM41 743l231 146v305l-231 236v-687zM98 729l205 -100h320v231h-320zM676 233l100 -102l131 133v334l-231 117v-482zM676 743l231 146v305l-131 133l-100 -102v-482zM807 100l100 -100h379l105 100l-134 133h-319zM807 1358l131 -133h319 l134 133l-105 100h-379zM1286 264l133 -133l103 102v482l-236 -117v-334zM1286 889l236 -146v482l-103 102l-133 -133v-305z" />
<glyph unicode="&#x44f;" horiz-adv-x="1044" d="M41 0l342 231l149 355h-118l-103 49zM158 743l235 146v305l-133 133l-102 -102v-482zM217 729l205 -100h319l205 100l-205 131h-319zM289 1358l133 -133h319l234 233h-582zM772 233l232 -233v715l-232 -117v-365zM772 889l232 -146v687l-232 -236v-305z" />
<glyph unicode="&#x451;" horiz-adv-x="897" d="M41 29l231 235v334l-231 117v-686zM41 743l231 146v305l-231 236v-687zM70 0h786l-233 233h-320zM70 1458l233 -233h320l233 233h-786zM98 729l205 -100h320l204 100l-204 131h-320zM143 1599h232v283h-232v-283zM512 1599h231v283h-231v-283z" />
<glyph unicode="&#x456;" horiz-adv-x="313" d="M41 -229l231 233v627l-231 145v-1005zM41 864h231v365h-231v-365z" />
<glyph unicode="&#x457;" horiz-adv-x="681" d="M41 1599h231v283h-231v-283zM225 233l232 -233v715l-232 -117v-365zM225 889l232 -146v715l-232 -233v-336zM410 1599h231v283h-231v-283z" />
<glyph unicode="&#x45c;" horiz-adv-x="897" d="M41 233l100 -102l131 133v142l-231 145v-318zM41 580l231 116v129l-131 133l-100 -102v-276zM172 100l100 -100h584l-233 233h-320zM172 989l131 -133h320l233 234h-584zM365 -61v-172l100 -103l131 133v142h-231zM365 1151h231v88l-131 133l-100 -102v-119z" />
<glyph unicode="&#x2000;" horiz-adv-x="941" />
<glyph unicode="&#x2001;" horiz-adv-x="1882" />
<glyph unicode="&#x2002;" horiz-adv-x="941" />
<glyph unicode="&#x2003;" horiz-adv-x="1882" />
<glyph unicode="&#x2004;" horiz-adv-x="627" />
<glyph unicode="&#x2005;" horiz-adv-x="470" />
<glyph unicode="&#x2006;" horiz-adv-x="313" />
<glyph unicode="&#x2007;" horiz-adv-x="313" />
<glyph unicode="&#x2008;" horiz-adv-x="235" />
<glyph unicode="&#x2009;" horiz-adv-x="376" />
<glyph unicode="&#x200a;" horiz-adv-x="104" />
<glyph unicode="&#x2010;" horiz-adv-x="657" d="M41 582h575v143h-575v-143z" />
<glyph unicode="&#x2011;" horiz-adv-x="657" d="M41 582h575v143h-575v-143z" />
<glyph unicode="&#x2012;" horiz-adv-x="657" d="M41 582h575v143h-575v-143z" />
<glyph unicode="&#x2013;" horiz-adv-x="811" d="M41 457h729v209h-729v-209z" />
<glyph unicode="&#x2014;" horiz-adv-x="1540" d="M41 457h1458v209h-1458v-209z" />
<glyph unicode="&#x2018;" horiz-adv-x="313" d="M41 1028l231 -72v502l-231 -117v-313z" />
<glyph unicode="&#x2019;" horiz-adv-x="313" d="M41 1028l231 -72v502l-231 -117v-313z" />
<glyph unicode="&#x201a;" horiz-adv-x="313" d="M41 113v-314l231 -71v501z" />
<glyph unicode="&#x201c;" horiz-adv-x="722" d="M41 1028l231 -72v502l-231 -117v-313zM451 1028l231 -72v502l-231 -117v-313z" />
<glyph unicode="&#x201d;" horiz-adv-x="722" d="M41 1028l231 -72v502l-231 -117v-313zM451 1028l231 -72v502l-231 -117v-313z" />
<glyph unicode="&#x201e;" horiz-adv-x="722" d="M41 113v-314l231 -71v501zM451 113v-314l231 -71v501z" />
<glyph unicode="&#x2026;" horiz-adv-x="1542" d="M41 0h231v365h-231v-365zM655 0h232v365h-232v-365zM1270 0h231v365h-231v-365z" />
<glyph unicode="&#x202f;" horiz-adv-x="376" />
<glyph unicode="&#x2039;" horiz-adv-x="475" d="M41 438l102 -102l133 133v242l-133 133l-102 -103v-303zM172 305l104 -100h158v233h-129zM172 874l133 -133h129v234h-158z" />
<glyph unicode="&#x203a;" horiz-adv-x="475" d="M41 205h158l104 100l-133 133h-129v-233zM41 741h129l133 133l-104 101h-158v-234zM199 469l133 -133l102 102v303l-102 103l-133 -133v-242z" />
<glyph unicode="&#x205f;" horiz-adv-x="470" />
<glyph unicode="&#x25fc;" horiz-adv-x="1454" d="M0 0v1454h1454v-1454h-1454z" />
</font>
</defs>
</svg>
